<svg xmlns="http://www.w3.org/2000/svg" viewBox="0 0 103.83 413.33"><defs><style>.cls-1{fill:#fff;}</style></defs><g id="圖層_2" data-name="圖層 2"><g id="圖層_1-2" data-name="圖層 1"><path class="cls-1" d="M76.36,21.75a2.24,2.24,0,0,1,.33,1.34,2,2,0,0,1-.52,1.24.94.94,0,0,1-.91.33,1,1,0,0,1-.78-.57q-.8-1.68-2.76-5.34s0,0,0,0a.08.08,0,0,0,0,.07V42.14a1.46,1.46,0,0,1-.44,1.1,1.49,1.49,0,0,1-1.1.45,1.54,1.54,0,0,1-1.55-1.55V19.22s0,0,0,0,0,0,0,0A53.51,53.51,0,0,1,62.3,32.34a1,1,0,0,1-.92.43,1.05,1.05,0,0,1-.86-.52,0,0,0,0,0-.05,0,2.6,2.6,0,0,1-.38-1.31,2.55,2.55,0,0,1,.47-1.41,45,45,0,0,0,4.32-7.75,58.44,58.44,0,0,0,3.23-9.17c0-.15,0-.23-.14-.23H62.16a1.51,1.51,0,0,1-1.11-.45,1.47,1.47,0,0,1-.44-1.08,1.4,1.4,0,0,1,.44-1.05,1.57,1.57,0,0,1,1.11-.42h6.18c.13,0,.19-.08.19-.24V1.55A1.47,1.47,0,0,1,69,.45,1.47,1.47,0,0,1,70.08,0a1.49,1.49,0,0,1,1.1.45,1.46,1.46,0,0,1,.44,1.1V9.09c0,.16.07.24.19.24h4.88a1.47,1.47,0,0,1,1,.42,1.38,1.38,0,0,1,.45,1.05,1.44,1.44,0,0,1-.45,1.08,1.42,1.42,0,0,1-1,.45H71.81c-.12,0-.19.08-.19.23v1.5a.9.9,0,0,0,.1.38C73.38,16.94,74.92,19.38,76.36,21.75ZM91.64,38.34a.17.17,0,0,0,.19.19h10.45a1.54,1.54,0,0,1,1.55,1.55,1.49,1.49,0,0,1-.45,1.1,1.46,1.46,0,0,1-1.1.44H77.53a1.55,1.55,0,1,1,0-3.09H88.17a.17.17,0,0,0,.19-.19V18.52c0-.16-.06-.24-.19-.24h-8a1.57,1.57,0,0,1-1.08-.44,1.5,1.5,0,0,1,0-2.16,1.54,1.54,0,0,1,1.08-.45h8c.13,0,.19-.07.19-.23V2.16A1.57,1.57,0,0,1,88.85,1a1.59,1.59,0,0,1,2.3,0,1.57,1.57,0,0,1,.49,1.15V15c0,.16.06.23.19.23h8.76a1.53,1.53,0,0,1,1.11,2.61,1.54,1.54,0,0,1-1.11.44H91.83c-.13,0-.19.08-.19.24Z"/><path class="cls-1" d="M102.89,57.67a1.43,1.43,0,0,1,.42,1,1.41,1.41,0,0,1-.42,1,1.4,1.4,0,0,1-1,.42H67c-.15,0-.23.06-.23.19V71.41q0,15.7-3.85,23.91a1.08,1.08,0,0,1-.82.63,1.44,1.44,0,0,1-1.1-.21,1.91,1.91,0,0,1-.75-.94,3.37,3.37,0,0,1-.05-.52,1.92,1.92,0,0,1,.15-.7q3.46-7.45,3.46-22.17V58.94a1.6,1.6,0,0,1,.5-1.19,1.56,1.56,0,0,1,1.14-.5H81.42q.24,0,.24-.18V54.49a1.58,1.58,0,0,1,.46-1.17,1.55,1.55,0,0,1,1.15-.47,1.52,1.52,0,0,1,1.15.47,1.59,1.59,0,0,1,.47,1.17v2.58c0,.12.08.18.23.18h16.74A1.4,1.4,0,0,1,102.89,57.67ZM78.7,87.77a1.18,1.18,0,0,1,.92.09,1,1,0,0,1,.54.71,1.29,1.29,0,0,1-.12,1,1.46,1.46,0,0,1-.73.66q-1.45.56-4.71,1.89c-2.17.9-3.77,1.54-4.8,2a1.77,1.77,0,0,1-2.16-.75,1.12,1.12,0,0,1-.19-.61,1,1,0,0,1,.1-.42,1,1,0,0,1,.75-.7Q71.26,90.54,78.7,87.77ZM99.05,77.55a1.69,1.69,0,0,1-1.69,1.64h-10c-.13,0-.17.06-.14.19a23.34,23.34,0,0,0,3.51,6.09c.07.1.16.11.28,0a60.65,60.65,0,0,0,6.47-4.41,1.87,1.87,0,0,1,1.2-.42,1.82,1.82,0,0,1,1.19.42,1,1,0,0,1,.45.92,1.12,1.12,0,0,1-.49.91,65.92,65.92,0,0,1-7.18,4.41c-.12.06-.14.14,0,.23A23.35,23.35,0,0,0,101.3,93a1,1,0,0,1,.65.7,1.05,1.05,0,0,1-.23,1,2.25,2.25,0,0,1-1.08.79,1.85,1.85,0,0,1-1.31,0A25.23,25.23,0,0,1,86.11,83.13s0,0,0,0a.08.08,0,0,0,0,.07v9.57A4.55,4.55,0,0,1,85.57,95a2.53,2.53,0,0,1-1.52,1.08,28,28,0,0,1-6.43.47,1.83,1.83,0,0,1-1.14-.42,2.44,2.44,0,0,1-.78-1,1,1,0,0,1,.1-.94.89.89,0,0,1,.79-.42c.91,0,1.74,0,2.49,0,1.15,0,2.08,0,2.76-.1a1.59,1.59,0,0,0,.94-.19,1,1,0,0,0,.24-.79V79.42a.21.21,0,0,0-.24-.23H72.42a1.12,1.12,0,0,1-.84-.35,1.17,1.17,0,0,1-.33-.82,1.16,1.16,0,0,1,.33-.82,1.08,1.08,0,0,1,.84-.35H82.78a.21.21,0,0,0,.24-.24V73c0-.13-.08-.19-.24-.19H69.33a1.2,1.2,0,0,1-.87-.35,1.26,1.26,0,0,1,0-1.74,1.2,1.2,0,0,1,.87-.35H82.78A.21.21,0,0,0,83,70.1V66.72c0-.12-.08-.19-.24-.19H72.7a1.08,1.08,0,0,1-.84-.35,1.17,1.17,0,0,1-.33-.84,1.11,1.11,0,0,1,.33-.82,1.14,1.14,0,0,1,.84-.33H82.78A.21.21,0,0,0,83,64V62.13a1.5,1.5,0,0,1,.42-1.06,1.4,1.4,0,0,1,1-.44,1.5,1.5,0,0,1,1.08.44A1.44,1.44,0,0,1,86,62.13V64a.2.2,0,0,0,.23.23H97.36a1.65,1.65,0,0,1,1.19.47,1.54,1.54,0,0,1,.5,1.17V70.1c0,.15.06.23.18.23h3.38a1.22,1.22,0,1,1,0,2.44H99.23c-.12,0-.18.06-.18.19ZM70.59,82.38a1,1,0,0,1-.47-.75,1,1,0,0,1,.29-.8,1.68,1.68,0,0,1,1.12-.51,1.71,1.71,0,0,1,.89.28,38.21,38.21,0,0,1,5,3.47,1.09,1.09,0,0,1,.44.89,1.35,1.35,0,0,1-1.33,1.4,1.43,1.43,0,0,1-1-.37A46.79,46.79,0,0,0,70.59,82.38ZM86.25,66.53c-.16,0-.23.07-.23.19V70.1a.2.2,0,0,0,.23.23h9.56c.13,0,.19-.08.19-.23V66.72a.17.17,0,0,0-.19-.19Zm0,6.24c-.16,0-.23.06-.23.19v3.65c0,.16.07.24.23.24h9.56c.13,0,.19-.08.19-.24V73a.17.17,0,0,0-.19-.19Z"/><path class="cls-1" d="M83.67,143.38a.21.21,0,0,0,.24.24h17.81a1.52,1.52,0,0,1,1.12.46,1.53,1.53,0,0,1,0,2.21,1.53,1.53,0,0,1-1.12.47H62.25a1.49,1.49,0,0,1-1.08-.47,1.53,1.53,0,0,1,0-2.21,1.48,1.48,0,0,1,1.08-.46H80.16q.18,0,.18-.24V131.19c0-.15-.06-.23-.18-.23H67.41a1.44,1.44,0,0,1-1.06-.45,1.53,1.53,0,0,1,0-2.15,1.44,1.44,0,0,1,1.06-.45H80.16c.12,0,.18-.06.18-.19v-10.5a.16.16,0,0,0-.18-.18H69a.34.34,0,0,0-.33.18,39.89,39.89,0,0,1-3.94,6.52,1.47,1.47,0,0,1-1.1.63,2,2,0,0,1-1.29-.3l-.09-.1a1.44,1.44,0,0,1-.66-1,1.42,1.42,0,0,1,.29-1.12q4.63-5.58,7.45-15a1.67,1.67,0,0,1,.75-1,1.71,1.71,0,0,1,1.26-.21,1.63,1.63,0,0,1,.94.75,1.41,1.41,0,0,1,.14,1.18,61.6,61.6,0,0,1-2.15,6.14c-.07.12,0,.18.14.18h9.75c.12,0,.18-.07.18-.23v-7.5A1.69,1.69,0,0,1,82,104.57a1.59,1.59,0,0,1,1.17.49,1.57,1.57,0,0,1,.49,1.15v7.5c0,.16.08.23.24.23H99.52a1.55,1.55,0,1,1,0,3.1H83.91q-.24,0-.24.18v10.46a.21.21,0,0,0,.24.23H97.78a1.47,1.47,0,0,1,1.1.45,1.51,1.51,0,0,1,0,2.15,1.47,1.47,0,0,1-1.1.45H83.91a.21.21,0,0,0-.24.23Z"/><path class="cls-1" d="M42.91,30.3a1.36,1.36,0,0,1,0,1.93,1.36,1.36,0,0,1-1,.39H25.45c-.12,0-.15.07-.09.19a12.77,12.77,0,0,0,3.89,4,19.63,19.63,0,0,0,5.63,2.56,42,42,0,0,0,7.45,1.33.85.85,0,0,1,.72.54,1,1,0,0,1-.07,1l-.14.15a2.26,2.26,0,0,1-2,1.31,1.65,1.65,0,0,1-.38,0,32,32,0,0,1-11.67-3.59,16.86,16.86,0,0,1-6.84-7.38s0-.05,0-.05,0,0,0,.05a15.09,15.09,0,0,1-6.23,7q-4.32,2.59-12.61,3.87a2,2,0,0,1-1.25-.24,2.33,2.33,0,0,1-.91-.93.93.93,0,0,1-.05-.94,1,1,0,0,1,.75-.56,36.74,36.74,0,0,0,11-2.93,12.71,12.71,0,0,0,5.67-5.14c.07-.12,0-.19-.09-.19H2a1.37,1.37,0,0,1-1-.39A1.36,1.36,0,0,1,1,30.3a1.37,1.37,0,0,1,1-.39h17.2a.25.25,0,0,0,.28-.19c.09-.28.19-.6.28-.94a2,2,0,0,1,.7-1.15,2.12,2.12,0,0,1,1.32-.44,1.28,1.28,0,0,1,1.05.49,1.23,1.23,0,0,1,.26,1.1c-.06.34-.13.66-.19.94-.06.12,0,.19.14.19H41.91A1.36,1.36,0,0,1,42.91,30.3ZM8.39,6.61a.2.2,0,0,0-.23.23V27.05a1.42,1.42,0,0,1-.43,1.07,1.4,1.4,0,0,1-1.05.43,1.43,1.43,0,0,1-1.06-.43,1.45,1.45,0,0,1-.42-1.07V5.62a1.6,1.6,0,0,1,.47-1.14A1.56,1.56,0,0,1,6.84,4h12c.16,0,.25-.06.28-.18.35-.78.66-1.52.94-2.21a2.17,2.17,0,0,1,.94-1,2,2,0,0,1,1-.28h.38a1.2,1.2,0,0,1,.91.63,1.13,1.13,0,0,1,0,1.11c-.31.62-.62,1.21-.93,1.78-.07.12,0,.18.14.18H37.69a1.62,1.62,0,0,1,1.19.5,1.56,1.56,0,0,1,.5,1.14V27a1.47,1.47,0,0,1-.47,1.1,1.58,1.58,0,0,1-2.21,0,1.47,1.47,0,0,1-.47-1.1V6.84c0-.15-.06-.23-.18-.23ZM23.2,24.47a1.22,1.22,0,0,1-.37.89,1.25,1.25,0,0,1-.92.37,1.28,1.28,0,0,1-1.29-1.26V20.11a.07.07,0,0,0,0-.07s-.06,0-.1,0a29.89,29.89,0,0,1-7.68,6.19,1.37,1.37,0,0,1-.75.23,1.74,1.74,0,0,1-1.27-.65.91.91,0,0,1-.21-.78.83.83,0,0,1,.45-.63,27.32,27.32,0,0,0,8-6c0-.09-.06-.14-.09-.14H11.62a1.07,1.07,0,0,1-.79-.33,1,1,0,0,1-.33-.77,1,1,0,0,1,.33-.77,1.07,1.07,0,0,1,.79-.33h3.71c.15,0,.2-.06.14-.19a12.52,12.52,0,0,0-1.17-2.58.82.82,0,0,1-.07-.7.77.77,0,0,1,.49-.52,2.31,2.31,0,0,1,.61-.09,1.15,1.15,0,0,1,1,.61,9.4,9.4,0,0,1,.75,1.45,1.25,1.25,0,0,1,0,1.13,1.49,1.49,0,0,1-.86.79v.1h4.17q.18,0,.18-.24V11.25c0-.16-.06-.22-.18-.19q-5.62.24-7.55.24a1.33,1.33,0,0,1-1.27-.94.84.84,0,0,1,.1-.68.58.58,0,0,1,.51-.3A167.8,167.8,0,0,0,30,8.06a2.29,2.29,0,0,1,.43,0A2,2,0,0,1,32,8.81a.78.78,0,0,1,.09.73.62.62,0,0,1-.56.44q-3.19.52-8.16.85c-.12,0-.19.08-.19.23v4.78c0,.16.07.24.19.24h3.89s0,0,0,0,0,0,0-.07a1.05,1.05,0,0,1-.63-.7,1.13,1.13,0,0,1,.12-1c.4-.69.76-1.36,1.07-2a1.4,1.4,0,0,1,.68-.66,1.32,1.32,0,0,1,.92,0,1.06,1.06,0,0,1,.58.61A.93.93,0,0,1,30,13c-.68,1.16-1.28,2.11-1.78,2.86-.09.13-.06.19.1.19h4.26a1.09,1.09,0,0,1,.8.33,1,1,0,0,1,.33.77,1,1,0,0,1-.33.77,1.09,1.09,0,0,1-.8.33H23.2v0a93.53,93.53,0,0,1,9.57,5.44,1,1,0,0,1,.49.75,1.2,1.2,0,0,1-.21.86,1.22,1.22,0,0,1-.78.5,1.19,1.19,0,0,1-.91-.19q-3-2-8-4.83c-.09-.09-.14-.06-.14.09Z"/><path class="cls-1" d="M8.06,71.64a1.64,1.64,0,0,1,1.2.5,1.59,1.59,0,0,1,.49,1.19v13.5a.88.88,0,0,0,.09.38q3.48,5,12.61,5.34c1.75.06,3.93.09,6.52.09h3c3.94,0,7.37-.12,10.31-.28a.93.93,0,0,1,.89.42,1.14,1.14,0,0,1,.19.66,2.33,2.33,0,0,1,0,.38l0,0a2.59,2.59,0,0,1-.8,1.17,2.13,2.13,0,0,1-1.27.52c-4,.12-7.67.19-11.11.19q-4.07,0-7.64-.14Q12.89,95.27,8.53,90c-.09-.13-.19-.13-.28,0-2.37,2.19-4.19,3.84-5.44,5a1.42,1.42,0,0,1-1.15.33,1.32,1.32,0,0,1-1-.66l-.14-.28a1.87,1.87,0,0,1-.23-.89,1.34,1.34,0,0,1,0-.42,1.76,1.76,0,0,1,.7-1.13c1.56-1.22,3.36-2.73,5.39-4.55a.45.45,0,0,0,.14-.32V74.88a.17.17,0,0,0-.19-.19H2a1.54,1.54,0,0,1-1.11-.44A1.53,1.53,0,0,1,2,71.64Zm2.21-11.25a1.61,1.61,0,0,1,.32,1.25,1.63,1.63,0,0,1-.61,1.1,1.46,1.46,0,0,1-1.17.33,1.53,1.53,0,0,1-1-.61,35.83,35.83,0,0,0-5.67-5.72,1.07,1.07,0,0,1-.47-.92,1.18,1.18,0,0,1,.47-1,2.26,2.26,0,0,1,1.22-.42,2,2,0,0,1,1.22.42A38,38,0,0,1,10.27,60.39Zm28.87.8a1.53,1.53,0,0,1,1.17.49,1.69,1.69,0,0,1,.47,1.2V85.8A1.63,1.63,0,0,1,40.31,87a1.53,1.53,0,0,1-1.17.49h-22a1.67,1.67,0,0,1-1.64-1.64V62.88a1.63,1.63,0,0,1,.49-1.2,1.57,1.57,0,0,1,1.15-.49h9a.17.17,0,0,0,.19-.19V54.63a1.49,1.49,0,0,1,.47-1.08,1.52,1.52,0,0,1,2.2,0,1.49,1.49,0,0,1,.47,1.08V61a.17.17,0,0,0,.19.19Zm-20.53,3c-.16,0-.23.06-.23.19v8.2c0,.16.07.24.23.24h7.45c.13,0,.19-.08.19-.24v-8.2a.17.17,0,0,0-.19-.19Zm0,11.44a.2.2,0,0,0-.23.23v8.35a.2.2,0,0,0,.23.23h7.45c.13,0,.19-.08.19-.23V75.86c0-.15-.06-.23-.19-.23ZM37.5,72.82c.16,0,.23-.08.23-.24v-8.2c0-.13-.07-.19-.23-.19H29.58a.17.17,0,0,0-.19.19v8.2c0,.16.06.24.19.24Zm0,11.62a.2.2,0,0,0,.23-.23V75.86a.2.2,0,0,0-.23-.23H29.58c-.13,0-.19.08-.19.23v8.35c0,.15.06.23.19.23Z"/><path class="cls-1" d="M23.44,144.88q0,.24.18.24h18.1a1.41,1.41,0,0,1,1,.42,1.41,1.41,0,0,1,0,2,1.41,1.41,0,0,1-1,.42H2.34a1.41,1.41,0,0,1-1-.42,1.41,1.41,0,0,1,0-2,1.41,1.41,0,0,1,1-.42H20q.18,0,.18-.24v-6c0-.16-.06-.23-.18-.23H6.7a1.37,1.37,0,0,1-1-.4,1.34,1.34,0,0,1-.4-1,1.38,1.38,0,0,1,.4-1,1.29,1.29,0,0,1,1-.43H20a.16.16,0,0,0,.18-.18V130.4q0-.24-.18-.24l-7.48.24-6.45.18A1.35,1.35,0,0,1,5,130.21a1.48,1.48,0,0,1-.52-1,1.23,1.23,0,0,1,.38-1,1.57,1.57,0,0,1,1-.47l5-.1a.34.34,0,0,0,.33-.18,67.6,67.6,0,0,0,4.13-7c.06-.13,0-.19-.15-.19H7.69a1.42,1.42,0,0,1-1-.4,1.31,1.31,0,0,1-.42-1,1.43,1.43,0,0,1,1.41-1.42H36.52a1.43,1.43,0,0,1,1.4,1.42,1.31,1.31,0,0,1-.42,1,1.41,1.41,0,0,1-1,.4H19.41a.39.39,0,0,0-.33.19q-2.34,3.88-4.5,6.93c-.1.13-.06.19.09.19L32.62,127a.07.07,0,0,0,.08,0,.09.09,0,0,0,0-.09c-1.31-1.06-2.62-2-3.94-2.95a1,1,0,0,1-.39-.78.93.93,0,0,1,.39-.82,2.1,2.1,0,0,1,1.18-.42,2,2,0,0,1,1.12.38,53.57,53.57,0,0,1,9.14,7.31,1.31,1.31,0,0,1,.35,1.08,1.37,1.37,0,0,1-.54,1,1.77,1.77,0,0,1-1.19.31,1.68,1.68,0,0,1-1.06-.54c-.56-.56-1.15-1.13-1.78-1.69a.51.51,0,0,0-.37-.14q-11.49.42-12,.42-.18,0-.18.24v5.39a.16.16,0,0,0,.18.18H37.45a1.29,1.29,0,0,1,1,.43,1.38,1.38,0,0,1,.4,1,1.34,1.34,0,0,1-.4,1,1.38,1.38,0,0,1-1,.4H23.62c-.12,0-.18.07-.18.23ZM4.83,112.26c-.16,0-.24.07-.24.23v3.89a1.46,1.46,0,0,1-.44,1.1,1.47,1.47,0,0,1-1.08.45A1.47,1.47,0,0,1,2,117.48a1.5,1.5,0,0,1-.44-1.1V111A1.57,1.57,0,0,1,2,109.84a1.57,1.57,0,0,1,1.15-.49H20c.12,0,.18-.08.18-.23v-1.88a1.62,1.62,0,0,1,3.24,0v1.88c0,.15.06.23.18.23H40.83a1.57,1.57,0,0,1,1.15.49,1.61,1.61,0,0,1,.49,1.15v5.34a1.6,1.6,0,0,1-1.59,1.6,1.49,1.49,0,0,1-1.11-.47,1.6,1.6,0,0,1-.44-1.13v-3.84c0-.16-.08-.23-.24-.23Z"/><path class="cls-1" d="M39.09,169.09a1.57,1.57,0,0,1,1.18.49,1.68,1.68,0,0,1,.46,1.2v27a5.79,5.79,0,0,1-.42,2.49,2.67,2.67,0,0,1-1.59,1.26,28.73,28.73,0,0,1-6.61.52,2,2,0,0,1-1.29-.47,2.14,2.14,0,0,1-.77-1.17,0,0,0,0,1-.05,0,1.13,1.13,0,0,1,.12-1,1,1,0,0,1,.86-.47h5.49a1.4,1.4,0,0,0,.84-.26,1.07,1.07,0,0,0,.24-.82v-25.4c0-.13-.08-.19-.24-.19H24.89c-.16,0-.22.06-.19.19q2.73,10.92,10.55,15a1.2,1.2,0,0,1,.63.86,1.08,1.08,0,0,1-.26,1,1.15,1.15,0,0,0-.14.19,2.29,2.29,0,0,1-1.14.75,1.69,1.69,0,0,1-1.29-.14q-7.92-4.54-10.83-15.28c-.06,0-.1,0-.1,0Q19.27,185.4,11,190.28a1.78,1.78,0,0,1-1.34.21,2.19,2.19,0,0,1-1.15-.73,1.29,1.29,0,0,1-.28-1,1.17,1.17,0,0,1,.61-.87Q17.3,183,19.64,172.42c0-.13,0-.19-.19-.19H6.84c-.15,0-.23.06-.23.19v28.12a1.59,1.59,0,0,1-.45,1.13,1.44,1.44,0,0,1-1.1.46,1.59,1.59,0,0,1-1.59-1.59V170.78a1.63,1.63,0,0,1,.49-1.2,1.57,1.57,0,0,1,1.15-.49H20.86c.16,0,.22-.06.19-.19a52.43,52.43,0,0,1-.52-5.25c0-.16-.11-.23-.23-.23H13.12a1.41,1.41,0,0,1-1-.4,1.32,1.32,0,0,1-.42-1,1.36,1.36,0,0,1,.42-1,1.32,1.32,0,0,1,1-.43h8.35a1.82,1.82,0,0,1,1.78,1.64q.24,3.62.7,6.66a.25.25,0,0,0,.28.19Z"/><path class="cls-1" d="M16.69,219.22a1.24,1.24,0,0,1,.93.37,1.29,1.29,0,0,1,0,1.83,1.24,1.24,0,0,1-.93.37H1.31a1.24,1.24,0,0,1-.93-.37,1.29,1.29,0,0,1,0-1.83,1.24,1.24,0,0,1,.93-.37Zm-2,19.17a1.59,1.59,0,0,1,1.15.47,1.53,1.53,0,0,1,.49,1.17v10.45a1.53,1.53,0,0,1-.49,1.17,1.59,1.59,0,0,1-1.15.47H5.2q-.18,0-.18.24V253a1.37,1.37,0,0,1-.43,1,1.33,1.33,0,0,1-1,.43,1.35,1.35,0,0,1-1-.43,1.4,1.4,0,0,1-.42-1V240a1.53,1.53,0,0,1,.49-1.17,1.64,1.64,0,0,1,1.19-.47ZM3.52,228.17a1.27,1.27,0,0,1-.94-.38,1.28,1.28,0,0,1,0-1.82,1.27,1.27,0,0,1,.94-.38H15.09A1.21,1.21,0,0,1,16,226a1.28,1.28,0,0,1,0,1.82,1.21,1.21,0,0,1-.89.38Zm0,6.42a1.22,1.22,0,0,1-.94-.4,1.29,1.29,0,0,1-.38-.91,1.31,1.31,0,0,1,.38-.92,1.24,1.24,0,0,1,.94-.39H15.09a1.18,1.18,0,0,1,.89.39,1.31,1.31,0,0,1,.38.92,1.29,1.29,0,0,1-.38.91,1.16,1.16,0,0,1-.89.4Zm11.39-21.66a1.27,1.27,0,0,1,.93.38,1.24,1.24,0,0,1,.38.91,1.28,1.28,0,0,1-1.31,1.29H3.8a1.28,1.28,0,0,1-1.32-1.29,1.24,1.24,0,0,1,.38-.91,1.27,1.27,0,0,1,.94-.38Zm-1.36,28.32c0-.13-.08-.19-.24-.19H5.2c-.12,0-.18.06-.18.19v8.11a.16.16,0,0,0,.18.18h8.11q.24,0,.24-.18Zm11.57-25.64a.2.2,0,0,0-.23.23v2.77c0,4.93-1.62,8.75-4.87,11.43a1.55,1.55,0,0,1-1.18.36,2.1,2.1,0,0,1-1.17-.54,1.28,1.28,0,0,1-.37-.94,1.26,1.26,0,0,1,.42-1q4.17-3.31,4.17-9.37v-4.17a1.53,1.53,0,0,1,.49-1.17,1.59,1.59,0,0,1,1.15-.47H35.06a1.61,1.61,0,0,1,1.64,1.64v10.26a1.76,1.76,0,0,0,.19,1,1.1,1.1,0,0,0,.8.21h2.62a.85.85,0,0,0,.87-.7,15,15,0,0,0,.26-3.14.87.87,0,0,1,.44-.7.92.92,0,0,1,.87-.05,2.67,2.67,0,0,1,1,.75,1.73,1.73,0,0,1,.33,1,8.22,8.22,0,0,1-1,4.45,2.65,2.65,0,0,1-2.44,1.13H37.27a3.8,3.8,0,0,1-2.82-.82,4.76,4.76,0,0,1-.75-3.12v-8.86a.2.2,0,0,0-.23-.23Zm13.55,16.26a1.64,1.64,0,0,1,.38,0,1.27,1.27,0,0,1,.61.14l.51.18a1.27,1.27,0,0,1,.63.64,1.09,1.09,0,0,1,.08.86,30.78,30.78,0,0,1-7.79,13c-.12.09-.12.17,0,.23a29.26,29.26,0,0,0,9.57,4.83,1.16,1.16,0,0,1,.7.7,1.56,1.56,0,0,1,0,.33,1,1,0,0,1-.24.66.56.56,0,0,0-.09.14,2.61,2.61,0,0,1-1.13.84,3,3,0,0,1-.7.1,2.63,2.63,0,0,1-.7-.1A32.75,32.75,0,0,1,30.7,249a.22.22,0,0,0-.32,0,36.37,36.37,0,0,1-10.46,5.44,2,2,0,0,1-.61.09,1.86,1.86,0,0,1-.7-.14,2.45,2.45,0,0,1-1.08-.89v0a1.16,1.16,0,0,1-.19-.65,2.18,2.18,0,0,1,.05-.42,1.29,1.29,0,0,1,.8-.71A31.45,31.45,0,0,0,28,246.78c.09-.06.09-.16,0-.28a31.31,31.31,0,0,1-6.19-9.38,1.21,1.21,0,0,1,0-1.05,1.35,1.35,0,0,1,.82-.73,1.58,1.58,0,0,1,1.17.09,1.66,1.66,0,0,1,.8.85,28.25,28.25,0,0,0,5.72,8.25.2.2,0,0,0,.32.05A26,26,0,0,0,37.08,235c.06-.12,0-.18-.14-.18H20.11a1.52,1.52,0,0,1-1.5-1.48,1.42,1.42,0,0,1,.44-1,1.44,1.44,0,0,1,1.06-.45H38.67Z"/><path class="cls-1" d="M17.53,272a1.2,1.2,0,0,1,.89.37,1.29,1.29,0,0,1,0,1.83,1.2,1.2,0,0,1-.89.37H1.31a1.24,1.24,0,0,1-.93-.37,1.29,1.29,0,0,1,0-1.83,1.24,1.24,0,0,1,.93-.37Zm-2.3,19.17a1.61,1.61,0,0,1,1.65,1.64v10.45a1.61,1.61,0,0,1-1.65,1.64h-10c-.13,0-.19.08-.19.24v.65a1.42,1.42,0,0,1-2.44,1,1.4,1.4,0,0,1-.42-1v-13a1.54,1.54,0,0,1,.5-1.17,1.61,1.61,0,0,1,1.19-.47ZM3.56,281a1.31,1.31,0,0,1-.94-.38,1.3,1.3,0,0,1,0-1.82,1.31,1.31,0,0,1,.94-.38H15.75a1.29,1.29,0,0,1,.91.38,1.24,1.24,0,0,1,0,1.82,1.29,1.29,0,0,1-.91.38Zm0,6.42a1.25,1.25,0,0,1-.94-.4,1.32,1.32,0,0,1-.37-.91,1.35,1.35,0,0,1,.37-.92,1.28,1.28,0,0,1,.94-.39H15.75a1.35,1.35,0,0,1,1.31,1.31,1.37,1.37,0,0,1-1.31,1.31Zm12.19-21.66a1.29,1.29,0,0,1,.91.38,1.18,1.18,0,0,1,.4.91,1.21,1.21,0,0,1-.4.92,1.28,1.28,0,0,1-.91.37H3.8A1.28,1.28,0,0,1,2.48,267a1.24,1.24,0,0,1,.38-.91,1.27,1.27,0,0,1,.94-.38ZM14,294.05a.17.17,0,0,0-.19-.19H5.25a.17.17,0,0,0-.19.19v8.11c0,.12.06.18.19.18h8.58a.17.17,0,0,0,.19-.18Zm28.73-13.64a1.43,1.43,0,0,1,1.1.47,1.52,1.52,0,0,1,.45,1.1,1.53,1.53,0,0,1-.45,1.1,1.47,1.47,0,0,1-1.1.47H33.61c-.13,0-.19.06-.19.18v22.36a1.59,1.59,0,0,1-.47,1.18,1.66,1.66,0,0,1-2.29,0,1.59,1.59,0,0,1-.47-1.18V283.73a.17.17,0,0,0-.19-.18H20.39a1.53,1.53,0,0,1-1.12-.47,1.48,1.48,0,0,1-.47-1.1,1.46,1.46,0,0,1,.47-1.1,1.49,1.49,0,0,1,1.12-.47H30a.17.17,0,0,0,.19-.19V265.73a1.5,1.5,0,0,1,.47-1.12,1.63,1.63,0,0,1,2.29,0,1.5,1.5,0,0,1,.47,1.12v14.49a.17.17,0,0,0,.19.19Z"/><path class="cls-1" d="M2.81,320.78a1.66,1.66,0,0,1,.49-1.19,1.63,1.63,0,0,1,1.2-.49H39.42a1.67,1.67,0,0,1,1.69,1.68v38a1.47,1.47,0,0,1-.45,1.1,1.51,1.51,0,0,1-2.15,0,1.47,1.47,0,0,1-.45-1.1v-.51c0-.13-.06-.19-.18-.19H6c-.12,0-.18.06-.18.19v.89a1.42,1.42,0,0,1-.43,1,1.4,1.4,0,0,1-1,.42,1.47,1.47,0,0,1-1-.42,1.36,1.36,0,0,1-.45-1Zm3,34.46a.16.16,0,0,0,.18.18H37.88a.16.16,0,0,0,.18-.18V321.91q0-.24-.18-.24H6q-.18,0-.18.24Zm29.57-10a1,1,0,0,1,.73.31,1,1,0,0,1,.31.75,1.06,1.06,0,0,1-.31.75,1,1,0,0,1-.73.3H29.58c-.13,0-.19.08-.19.24v4.5a2.77,2.77,0,0,1-.28,1.43,1.89,1.89,0,0,1-1.08.68,23.48,23.48,0,0,1-4.69.28,1.43,1.43,0,0,1-1.36-1,.6.6,0,0,1,0-.58.56.56,0,0,1,.54-.31c1.06,0,2.18.05,3.37.05a.9.9,0,0,0,.56-.19.62.62,0,0,0,.14-.47v-4.4q0-.24-.18-.24H8.58a1,1,0,0,1-.73-.3,1.05,1.05,0,0,1-.3-.75,1,1,0,0,1,.3-.75,1,1,0,0,1,.73-.31H26.44a.16.16,0,0,0,.18-.18v-.24A1.37,1.37,0,0,1,28,343.47a1.37,1.37,0,0,1,1.38,1.36v.24c0,.12.06.18.19.18ZM20.2,329a.17.17,0,0,0,.19-.19v-1.73a.17.17,0,0,0-.19-.19H9.14a1,1,0,0,1-1-1,1,1,0,0,1,.3-.73,1,1,0,0,1,.73-.3H20.2c.13,0,.19-.08.19-.24v-.75a1.37,1.37,0,0,1,1.38-1.36,1.37,1.37,0,0,1,1.39,1.36v.75q0,.24.18.24h11.3a1,1,0,0,1,.73.3,1,1,0,0,1,.3.73,1,1,0,0,1-1,1H23.34c-.12,0-.18.06-.18.19v1.73a.17.17,0,0,0,.18.19h8.91a1.63,1.63,0,0,1,1.2.49,1.66,1.66,0,0,1,.49,1.19v6.24a1.69,1.69,0,0,1-1.69,1.69H23.34a.16.16,0,0,0-.18.18v2.11c0,.13.06.19.18.19l6-.14s0,0,0-.09-.23-.19-.32-.28a.71.71,0,0,1-.31-.64.82.82,0,0,1,.35-.63A1.56,1.56,0,0,1,30,339a1.4,1.4,0,0,1,.89.33,25.72,25.72,0,0,1,3.66,3.23,1,1,0,0,1,.26.84,1.09,1.09,0,0,1-.45.75,1.16,1.16,0,0,1-.84.24,1.19,1.19,0,0,1-.8-.42c-.25-.28-.62-.67-1.12-1.17a.5.5,0,0,0-.38-.15q-15.37.52-21.75.66a1.15,1.15,0,0,1-.8-.3,1,1,0,0,1-.32-.73.92.92,0,0,1,.25-.75,1,1,0,0,1,.73-.33q2.72,0,10.92-.09a.17.17,0,0,0,.19-.19v-2.16c0-.12-.06-.18-.19-.18H11.77a1.64,1.64,0,0,1-1.2-.5,1.59,1.59,0,0,1-.49-1.19v-6.24A1.67,1.67,0,0,1,11.77,329Zm-7.31,1.78c-.16,0-.23.06-.23.19v1.78c0,.12.07.18.23.18H20.2c.13,0,.19-.06.19-.18V331a.17.17,0,0,0-.19-.19Zm-.23,5.81c0,.16.07.24.23.24H20.2c.13,0,.19-.08.19-.24v-1.73a.17.17,0,0,0-.19-.19H12.89c-.16,0-.23.06-.23.19Zm1,13a.78.78,0,0,1-.28-.71.74.74,0,0,1,.42-.61,1.81,1.81,0,0,1,.89-.28,1.76,1.76,0,0,1,1.13.42A23.77,23.77,0,0,1,18.47,351a1.06,1.06,0,0,1,.23.91,1.16,1.16,0,0,1-.51.78,1.32,1.32,0,0,1-1,.16,1.47,1.47,0,0,1-.84-.54A31.69,31.69,0,0,0,13.64,349.57ZM31.27,331c0-.13-.08-.19-.24-.19H23.34c-.12,0-.18.06-.18.19v1.78a.16.16,0,0,0,.18.18H31q.24,0,.24-.18ZM31,336.82a.21.21,0,0,0,.24-.24v-1.73c0-.13-.08-.19-.24-.19H23.34c-.12,0-.18.06-.18.19v1.73q0,.24.18.24Z"/><path class="cls-1" d="M40.36,385.4a1.5,1.5,0,0,1,1-.45,1.42,1.42,0,0,1,1,.38,1.24,1.24,0,0,1,.44,1,1.38,1.38,0,0,1-.42,1,84.69,84.69,0,0,1-6.75,5.95.27.27,0,0,0-.05.33q2.91,7.13,7.32,10.78a1.48,1.48,0,0,1,.51,1.13,1.41,1.41,0,0,1-.42,1v0a1.8,1.8,0,0,1-1.12.61,1.38,1.38,0,0,1-1.18-.37q-8-7.21-11.25-25.45a.32.32,0,0,0-.09-.08.09.09,0,0,0-.09,0A42.56,42.56,0,0,1,25,385.21c-.12.09-.12.19,0,.28a21.58,21.58,0,0,1,5,6.89,25,25,0,0,1,2.34,7.78,26.67,26.67,0,0,1,.19,3.14,20.44,20.44,0,0,1-.33,3.75,7.87,7.87,0,0,1-2,4.46,5,5,0,0,1-1.9,1.36,7.27,7.27,0,0,1-2.51.37H24a1.77,1.77,0,0,1-1.12-.49,2.32,2.32,0,0,1-.66-1.15,1,1,0,0,1,.16-.89.87.87,0,0,1,.82-.38c.69,0,1.36.05,2,.05a3.24,3.24,0,0,0,2.67-1,6.78,6.78,0,0,0,1.41-3.89,15.15,15.15,0,0,0,.14-2.06,23,23,0,0,0-.42-4.22.08.08,0,0,0-.07-.07.1.1,0,0,0-.12,0,47.57,47.57,0,0,1-6.33,5.51,49.49,49.49,0,0,1-7.22,4.48,1.71,1.71,0,0,1-1.19.11,1.94,1.94,0,0,1-1-.68,1.13,1.13,0,0,1-.24-.93.89.89,0,0,1,.57-.71,45.58,45.58,0,0,0,8.13-4.78,36.08,36.08,0,0,0,6.54-5.95.46.46,0,0,0,.09-.38,19.62,19.62,0,0,0-1.59-3.61c-.06-.12-.14-.14-.24,0a50.5,50.5,0,0,1-8.15,6.23,1.71,1.71,0,0,1-1.27.16,2.13,2.13,0,0,1-1.12-.67,4.53,4.53,0,0,0-.71-.8.11.11,0,0,0-.11,0c-.05,0-.07,0-.07.08-.16,2-.74,3.34-1.74,4a6,6,0,0,1-2.48.84,14.79,14.79,0,0,1-1.74.09,1.62,1.62,0,0,1-1.12-.42,2.3,2.3,0,0,1-.66-1.08,1,1,0,0,1,.14-.89.92.92,0,0,1,.8-.42,11.69,11.69,0,0,0,1.45,0,3.9,3.9,0,0,0,1.6-.42c.62-.47.93-1.59.93-3.38A13.29,13.29,0,0,0,8.72,387a2.85,2.85,0,0,1-.66-1.78,2.88,2.88,0,0,1,.19-1q1.79-4.65,3.33-9.38c.06-.15,0-.23-.14-.23H5.11a.2.2,0,0,0-.23.23v37.08a1.4,1.4,0,0,1-.43,1,1.36,1.36,0,0,1-1,.42,1.37,1.37,0,0,1-1-.42,1.4,1.4,0,0,1-.42-1V373.35a1.57,1.57,0,0,1,.49-1.15,1.61,1.61,0,0,1,1.19-.49h9.24a.92.92,0,0,1,.79.09l.66.38A1.55,1.55,0,0,1,15,373a1.46,1.46,0,0,1,0,1q-2.86,7.74-4.36,11.25a.26.26,0,0,0,0,.33Q15,390.42,15,395.76a7.16,7.16,0,0,1-.05.93.12.12,0,0,0,.05.12.28.28,0,0,0,.14,0,38.51,38.51,0,0,0,5.2-3.07A34.19,34.19,0,0,0,25,390a.21.21,0,0,0,.05-.33,18.17,18.17,0,0,0-2.25-2.58.28.28,0,0,0-.33-.05,49.67,49.67,0,0,1-5.2,3.24,1.76,1.76,0,0,1-1.24.19,1.92,1.92,0,0,1-1.06-.66,1.1,1.1,0,0,1-.28-1,1,1,0,0,1,.61-.77,42.36,42.36,0,0,0,10.83-7.36.11.11,0,0,0,0-.12c0-.05,0-.07-.07-.07H16.59a1.33,1.33,0,0,1-1-.4,1.32,1.32,0,0,1-.4-1,1.39,1.39,0,0,1,.4-1,1.31,1.31,0,0,1,1-.42h5.3c.13,0,.17-.07.14-.19a26.22,26.22,0,0,0-2.44-5.63,1.15,1.15,0,0,1,0-1,1.12,1.12,0,0,1,.65-.68,1.57,1.57,0,0,1,1.15,0,1.75,1.75,0,0,1,.92.73,27.87,27.87,0,0,1,2.2,4.45,1.7,1.7,0,0,1-1,2.16l-.14,0a.18.18,0,0,0-.05.07s0,0,.05,0H34.17v-.05l-.14-.09a1.36,1.36,0,0,1-.75-2q1.17-2.11,2.3-4.55a1.76,1.76,0,0,1,.89-.89,1.82,1.82,0,0,1,.7-.14,1.72,1.72,0,0,1,.52.09,1.26,1.26,0,0,1,.84.78,1.13,1.13,0,0,1-.09,1.1,60.11,60.11,0,0,1-3.24,5.53c-.06.12,0,.19.1.19h6.61a1.41,1.41,0,0,1,1,.42,1.37,1.37,0,0,1,.42,1,1.3,1.3,0,0,1-.42,1,1.43,1.43,0,0,1-1,.4H32.2c-.15,0-.22.08-.18.23a64.66,64.66,0,0,0,2.48,9.89c0,.16.11.19.23.1A62.82,62.82,0,0,0,40.36,385.4Z"/></g></g></svg>