<svg xmlns="http://www.w3.org/2000/svg" width="106.02" height="335.925" viewBox="0 0 106.02 335.925">
  <g id="Group_305" data-name="Group 305" transform="translate(162 -2300.717)">
    <g id="Group_303" data-name="Group 303" transform="translate(-947)">
      <g id="Group_64" data-name="Group 64" transform="translate(-943)">
        <g id="Group_63" data-name="Group 63">
          <path id="Path_123" data-name="Path 123" d="M1799.333,2305.217h12.187v3h-6.562l1.312,2.812-4.125.75-1.125-3.562h-3.187a37.583,37.583,0,0,1-5.25,6l-2.25-3.188a23.926,23.926,0,0,0,6.75-10.312l3.75.75q.563.563-.375,1.125A7.534,7.534,0,0,1,1799.333,2305.217Zm-1.875,20.062v18.75h-3.188v-30.937h15.938v12.187Zm0-7.312h9.562v-2.625h-9.562Zm0,5.062h9.562v-2.812h-9.562Zm6.562,18.938V2327.9h16.125v13.5h-3.187v-.75h-9.75v1.313Zm3.188-8.813h9.75v-3h-9.75Zm0,5.25h9.75v-3h-9.75Zm25.5-33.187v3h-9l1.5,3-4.313.75-1.312-3.75H1816.4a27.254,27.254,0,0,1-4.125,5.25l-2.625-2.625a22.792,22.792,0,0,0,5.813-9.938l3.937.563q.747.563-.562,1.312c-.252.75-.563,1.565-.938,2.438Zm-18.75,20.062v-12.187h16.125v28.125a2.321,2.321,0,0,1-2.625,2.625h-3l-.375-3.563h2.062a.665.665,0,0,0,.75-.75v-14.25h-12.937Zm3.187-7.312h9.75v-2.625h-9.75Zm0,5.062h9.75v-2.812h-9.75Z" fill="#fff"/>
          <path id="Path_124" data-name="Path 124" d="M1803.458,2354.877c.5.375.375.688-.375.937a56.721,56.721,0,0,1-3.375,11.25l.75.188q.563.563-.375,1.125v28.5h-3.75v-23.813a48.331,48.331,0,0,1-4.125,5.25l-2.25-3.562q7.5-7.875,9.375-21Zm21.937,24,.75-.75,2.438,2.437q1.31,1.314-.375,1.125a39.368,39.368,0,0,1-6.938,6.75,29.43,29.43,0,0,0,12,3.75l-.75,3.75a27.54,27.54,0,0,1-14.062-5.437q-5.44,3.938-15.563,6.187l-1.312-3.75q8.811-1.125,14.25-4.687a39.992,39.992,0,0,1-4.125-5.813,30.641,30.641,0,0,1-7.875,5.813l-1.688-3.188a25.441,25.441,0,0,0,12.188-11.812l3,1.5c.75.5.685.814-.188.937l-2.437,3.188Zm3.563-11.438q-1.125-1.125-2.438-2.625l-4.125.188v5.062q0,1.314,1.125,1.313h3.75q1.872,0,2.25-2.813l3.563,1.313q-1.125,5.063-4.125,5.062h-7.125q-3.19,0-3.188-3.375v-6.187l-5.062.562q0,9.751-10.313,12l-1.312-3.562q7.875-1.687,7.875-8.063l-4.875.375q-.189,1.5-.938.75l-.937-4.312,5.437-.188a94.683,94.683,0,0,0,4.125-9.187l4.125,1.312q.747.751-.562.938-1.5,2.628-4.5,6.937l12.375-.75q-2.065-2.061-4.313-3.937l2.625-2.063a48.442,48.442,0,0,1,9.563,8.813Zm-5.438,14.438h-8.437a12.478,12.478,0,0,0,3.562,4.5A27.3,27.3,0,0,0,1823.52,2381.877Z" fill="#fff"/>
          <path id="Path_125" data-name="Path 125" d="M1805.9,2411.379q.936,1.125-1.312.937a70.547,70.547,0,0,1-7.313,1.875v20.063l3.375-1.125v-18h3q1.5.189.188,1.125v18.375q0,11.813-9.375,15.75l-2.25-3.375q8.249-3.186,8.25-10.875l-6.938,3.187q-.751,2.25-1.687.75l-1.688-3.562,3.375-.938v-25.312l3.563,1.312a33.5,33.5,0,0,0,6-3Zm9.375-3.75q1.5.378,0,1.125l-1.687,3.937h5.437v18.563h-3.187v-2.063h-6.188v4.688h8.813v3h-8.813V2441h9.188v3h-9.188v5.437h-3.187v-36.75h3.75l1.312-5.812Zm-5.625,11.625h6.188v-3.563h-6.188Zm0,6.937h6.188v-3.937h-6.188Zm22.313-15.562v28.312q0,3.564-3.375,3.563h-1.875l-1.688-4.125h2.438a.663.663,0,0,0,.75-.75v-23.438h-3.938v35.063h-3.187v-38.625Z" fill="#fff"/>
          <path id="Path_126" data-name="Path 126" d="M1834.02,2526.215l-1.125,3.562H1812.27q-7.5,0-12.187-4.5a26.285,26.285,0,0,1-7.125,6.563l-2.438-3.75a23.917,23.917,0,0,0,7.125-5.813,44.872,44.872,0,0,1-4.687-9.937l3.187-.75a35.1,35.1,0,0,0,3.375,7.125,27.015,27.015,0,0,0,1.688-9.188v-1.687h-3.938l-1.687,2.437-3.563-1.5q4.122-6.935,7.5-13.875h-7.687v-3.562h8.437l.75-.938,3.75,2.813q.374.378-.75.75l-5.062,10.312h6v2.813q0,9.189-3,15.187,3.749,3.938,11.812,3.938Zm-17.625-27.188v-3.187h-8.812v-3h8.812v-4.688h3q1.5.189.188,1.125v3.563h9.75v6.187h3.75v3h-3.75v6.375h-9.75v2.625H1829.9v3h-10.312v3.563h12.562v3h-12.562v4.125H1816.4v-4.125h-11.062v-3H1816.4v-3.563h-8.625v-3h8.625V2508.4h-8.812v-3h8.812v-3.375h-12.187v-3Zm9.75-3.187h-6.562v3.187h6.562Zm0,6.187h-6.562v3.375h6.562Z" fill="#fff"/>
          <path id="Path_127" data-name="Path 127" d="M1791.083,2550.092q5.81-4.5,7.687-9.563l3.75.563c.873.252.75.562-.375.937l-1.5,2.438h11.438v3h-7.125a14.239,14.239,0,0,1,1.687,3.375l-3.75,1.125a12.319,12.319,0,0,0-2.062-4.5h-1.875a21.168,21.168,0,0,1-5.625,5.437Zm41.625,33a37.985,37.985,0,0,1-18.375-7.688v8.438h-3.75v-8.063q-6.187,5.063-17.625,7.688l-1.125-3.938q12.749-3,18-7.5H1793.52v-3h17.063V2566.4l-1.688.563-1.312-3.375q5.81-1.125,5.812-5.625v-5.813l-1.5,1.5-2.625-2.812q4.311-3,6-10.688l3.938.375q.747.751-.563.938l-.937,3h14.25v3h-8.25q.747,1.314,1.5,2.812l-3.75.938a16.594,16.594,0,0,0-1.688-3.75h-3.187a20.093,20.093,0,0,1-3,4.5h13.5v8.812a1.159,1.159,0,0,0,1.312,1.313h.938q.747,0,1.125-1.875l.375-2.063,3.187.938q-.562,6-3.562,6h-3.188q-3.375,0-3.375-3.375v-6.75h-7.312v4.312l2.062-2.062a17.663,17.663,0,0,1,4.313,4.312l-2.438,2.438a51.5,51.5,0,0,0-3.937-4.5q-.378,4.315-5.438,6.562h3q1.5.189.188,1.125v1.875H1831.4v3h-16.312q6.935,5.251,18.375,6.75Zm-23.25-26.813h-6v4.313l6.375-1.5.562,2.625q-8.064,2.439-15.562,4.125-.751,1.5-1.125,0l-1.313-3.375,7.313-1.125v-5.063h-5.063v-3h14.813Z" fill="#fff"/>
          <path id="Path_128" data-name="Path 128" d="M1796.52,2599.892l2.25-6.563,3.375.938q2.25.751,0,1.312l-2.062,4.313h7.5v15.187h-3.75v-1.312h-8.063v4.5h12.188v15.375h-3.75v-1.125h-8.438v2.812h-3.75v-35.437Zm7.313,3.562h-8.063v6.75h8.063Zm-8.063,18.375v7.125h8.438v-7.125Zm13.313-21.375v-3.562h24.375v3.562h-10.5v6.938h8.812v19.875a2.652,2.652,0,0,1-3,3h-2.812l-.563-3.563h1.875a.663.663,0,0,0,.75-.75v-15h-5.062v25.688h-3.75v-25.688h-4.5v19.688h-3.75v-23.25h8.25v-6.938Z" fill="#fff"/>
        </g>
      </g>
      <rect id="Rectangle_159" data-name="Rectangle 159" width="44" height="110" transform="translate(785 2301)" fill="none"/>
    </g>
  </g>
</svg>
