<svg xmlns="http://www.w3.org/2000/svg" viewBox="0 0 108 328"><defs><style>.cls-1{fill:#fff;}.cls-2{fill:none;}</style></defs><g id="圖層_2" data-name="圖層 2"><g id="圖層_1-2" data-name="圖層 1"><path class="cls-1" d="M70.43,7.34a.36.36,0,0,0-.33-.19H68.36a.34.34,0,0,0-.32.19,35.1,35.1,0,0,1-3,3.89,1.78,1.78,0,0,1-1.15.52,1.92,1.92,0,0,1-1.24-.33,1.19,1.19,0,0,1-.52-1,1.26,1.26,0,0,1,.33-.85A26.13,26.13,0,0,0,67.61,2a1.84,1.84,0,0,1,.85-.89A1.72,1.72,0,0,1,69.21,1a1.35,1.35,0,0,1,.47.09,1.2,1.2,0,0,1,.86.7,1.35,1.35,0,0,1,0,1.13c-.25.53-.52,1-.8,1.5-.06.12,0,.19.14.19H81.35a1.28,1.28,0,0,1,.91.37,1.25,1.25,0,0,1,0,1.83,1.28,1.28,0,0,1-.91.37H73.66c-.16,0-.2.07-.14.19a19.81,19.81,0,0,1,1.31,2.53,1.24,1.24,0,0,1,0,1.08,1.29,1.29,0,0,1-.84.68,1.57,1.57,0,0,1-1.13-.09,1.51,1.51,0,0,1-.77-.82C71.63,9.69,71.08,8.56,70.43,7.34ZM81.11,23.47a1.58,1.58,0,0,1-.49,1.15,1.65,1.65,0,0,1-1.19.49H67.71a.21.21,0,0,0-.24.23V43.06a1.43,1.43,0,0,1-.42,1,1.43,1.43,0,0,1-2.06,0,1.43,1.43,0,0,1-.42-1V14.65A1.64,1.64,0,0,1,65,13.46,1.53,1.53,0,0,1,66.21,13H79.43a1.67,1.67,0,0,1,1.68,1.68Zm-3-8.11c0-.16-.06-.24-.19-.24H67.71a.21.21,0,0,0-.24.24v2.39a.21.21,0,0,0,.24.23H78c.13,0,.19-.08.19-.23Zm-10.69,7.4c0,.13.08.19.24.19H78a.17.17,0,0,0,.19-.19V20.28a.17.17,0,0,0-.19-.19H67.71c-.16,0-.24.06-.24.19Zm23.07,4.88a1.55,1.55,0,0,1,1.17.49,1.69,1.69,0,0,1,.47,1.2V39a1.69,1.69,0,0,1-.47,1.2,1.55,1.55,0,0,1-1.17.49H77.6a.17.17,0,0,0-.19.19V41a1.43,1.43,0,1,1-2.86,0V29.33a1.69,1.69,0,0,1,.47-1.2,1.53,1.53,0,0,1,1.17-.49ZM89.32,30c0-.16-.07-.24-.19-.24H77.65a.21.21,0,0,0-.24.24v2.86c0,.12.08.19.24.19H89.13a.17.17,0,0,0,.19-.19Zm-11.91,8.3a.21.21,0,0,0,.24.23H89.13c.12,0,.19-.08.19-.23v-3c0-.15-.07-.23-.19-.23H77.65a.21.21,0,0,0-.24.23ZM88.61,4.39c-.06.12,0,.19.1.19h14.53a1.28,1.28,0,0,1,.91.37,1.25,1.25,0,0,1,0,1.83,1.28,1.28,0,0,1-.91.37H94.33c-.15,0-.18.07-.09.19a23.51,23.51,0,0,1,1.87,2.58,1.24,1.24,0,0,1-.7,1.78,1.82,1.82,0,0,1-.56.09,1.57,1.57,0,0,1-.66-.14,1.84,1.84,0,0,1-.89-.79,24.88,24.88,0,0,0-2.44-3.52.44.44,0,0,0-.37-.19H87a.41.41,0,0,0-.32.19,26.63,26.63,0,0,1-3.24,3.56,1.9,1.9,0,0,1-1.22.52,2.18,2.18,0,0,1-1.31-.33,1.06,1.06,0,0,1-.14-1.78,22.24,22.24,0,0,0,5.62-7.22,2.36,2.36,0,0,1,.94-.94A1.84,1.84,0,0,1,88.1,1a2.56,2.56,0,0,1,.47,0,1.3,1.3,0,0,1,.89.71,1.17,1.17,0,0,1,0,1.12C89.24,3.28,89,3.79,88.61,4.39ZM100.85,13a1.59,1.59,0,0,1,1.19.49,1.63,1.63,0,0,1,.5,1.19V40.76a4.77,4.77,0,0,1-.4,2.16A2.48,2.48,0,0,1,100.8,44a20.59,20.59,0,0,1-5.53.47H95a1.76,1.76,0,0,1-1.13-.42,2.48,2.48,0,0,1-.75-1,1,1,0,0,1,.1-.94A.9.9,0,0,1,94,41.7h4.55a1.08,1.08,0,0,0,.77-.21,1,1,0,0,0,.22-.73V25.34c0-.15-.07-.23-.19-.23H87.07a1.67,1.67,0,0,1-1.2-.49,1.58,1.58,0,0,1-.49-1.15V14.65A1.67,1.67,0,0,1,87.07,13Zm-1.31,2.39c0-.16-.07-.24-.19-.24H88.52c-.12,0-.19.08-.19.24v2.39c0,.15.07.23.19.23H99.35c.12,0,.19-.08.19-.23Zm-11.21,7.4a.17.17,0,0,0,.19.19H99.35a.17.17,0,0,0,.19-.19V20.28a.17.17,0,0,0-.19-.19H88.52a.17.17,0,0,0-.19.19Z"/><path class="cls-1" d="M71.74,55.27a1.56,1.56,0,0,1,.8-.89,1.61,1.61,0,0,1,.75-.19,1.8,1.8,0,0,1,.46.05,1.41,1.41,0,0,1,.9.75,1.3,1.3,0,0,1,0,1.12,67,67,0,0,1-4.26,8.72.74.74,0,0,0-.1.37V95.72a1.43,1.43,0,0,1-.47,1.1,1.53,1.53,0,0,1-1.1.45,1.47,1.47,0,0,1-1.08-.45,1.52,1.52,0,0,1-.44-1.1V70c0-.06,0-.09,0-.09a.11.11,0,0,0-.09,0,51.12,51.12,0,0,1-3.85,4.92,1.09,1.09,0,0,1-1,.37,1.15,1.15,0,0,1-.89-.61,2.38,2.38,0,0,1-.14-.23,2.31,2.31,0,0,1-.33-1.17,2.16,2.16,0,0,1,.52-1.41,48.24,48.24,0,0,0,5.74-7.57A60.41,60.41,0,0,0,71.74,55.27Zm26,23.67a1.41,1.41,0,0,1,.94.14l.61.28a1.27,1.27,0,0,1,.59.68,1.12,1.12,0,0,1-.07.91,24.56,24.56,0,0,1-7.46,8.82.18.18,0,0,0,0,.14c0,.06,0,.09,0,.09a41.19,41.19,0,0,0,11.72,4.27.87.87,0,0,1,.75.61,1.57,1.57,0,0,1,0,.37,1,1,0,0,1-.19.61l-.09.09a2.26,2.26,0,0,1-1.88,1.18,1.89,1.89,0,0,1-.56-.1,40.36,40.36,0,0,1-12.51-5.2.42.42,0,0,0-.38,0A47.33,47.33,0,0,1,75.72,97a2.42,2.42,0,0,1-.47,0,1.68,1.68,0,0,1-.84-.24,2.14,2.14,0,0,1-1-.93,1.2,1.2,0,0,1-.14-.57,1.22,1.22,0,0,1,.09-.42,1.13,1.13,0,0,1,.75-.65A43.24,43.24,0,0,0,86.74,90a.41.41,0,0,0,.07-.11.1.1,0,0,0-.07-.12,25.69,25.69,0,0,1-5.3-5.67.21.21,0,0,0-.33,0,36.34,36.34,0,0,1-4.26,3.14,1.87,1.87,0,0,1-1.29.28,2.41,2.41,0,0,1-1.24-.56,1.08,1.08,0,0,1-.38-.94,1,1,0,0,1,.56-.84,30.3,30.3,0,0,0,10.6-9.56,2,2,0,0,1,1-.8,1.74,1.74,0,0,1,.66-.14,2.37,2.37,0,0,1,.61.09,1.17,1.17,0,0,1,.75.75,1.11,1.11,0,0,1-.15,1,26.9,26.9,0,0,1-1.68,2.35c-.1.12-.07.19.09.19h11.2A.34.34,0,0,0,97.75,78.94ZM75.49,65.86a1.65,1.65,0,0,1-1.13-.42,1.54,1.54,0,0,1-.51-1.08,1.39,1.39,0,0,1,.37-1.08,1.35,1.35,0,0,1,1-.47l4.13-.09a.7.7,0,0,0,.33-.19,70.8,70.8,0,0,0,4.12-7.45,1.73,1.73,0,0,1,.94-.94,1.85,1.85,0,0,1,.8-.19,1.89,1.89,0,0,1,.56.1l.19,0a1.3,1.3,0,0,1,.84.78A1.24,1.24,0,0,1,87.07,56c-1.32,2.25-2.67,4.39-4.08,6.42-.06.09,0,.14.09.14q5.11-.13,14.58-.52a.07.07,0,0,0,.07,0,.08.08,0,0,0,0-.1q-1.5-1.68-3-3.09a1,1,0,0,1-.3-.91,1,1,0,0,1,.54-.78,1.94,1.94,0,0,1,2.3.24,61.27,61.27,0,0,1,7.21,7.68,1.42,1.42,0,0,1,.33.89v.33a1.59,1.59,0,0,1-.7,1,1.55,1.55,0,0,1-1.22.23,1.77,1.77,0,0,1-1.08-.7c-.4-.56-.9-1.21-1.5-1.92a.28.28,0,0,0-.33-.14L94.15,65c-.16,0-.24.11-.24.23v6.47c0,.47.1.78.31.92a2.67,2.67,0,0,0,1.33.21h4.69a1.22,1.22,0,0,0,1.08-.42,5,5,0,0,0,.42-1.88.75.75,0,0,1,.42-.7,1,1,0,0,1,.89,0,2.1,2.1,0,0,1,.92.75,1.42,1.42,0,0,1,.25,1.08,5.49,5.49,0,0,1-1,3,3.39,3.39,0,0,1-2.51.79H95.27q-2.62,0-3.45-.75a4.11,4.11,0,0,1-.82-3V65.34c0-.12-.07-.18-.23-.18l-5.2.28c-.16,0-.25.06-.28.19a15.28,15.28,0,0,1-2.61,7.17,13.32,13.32,0,0,1-6.44,4.26A1.57,1.57,0,0,1,75,77a2.27,2.27,0,0,1-1-.77,1,1,0,0,1-.19-.92.85.85,0,0,1,.65-.63,11.55,11.55,0,0,0,5.56-3.35,11.06,11.06,0,0,0,2.23-5.65c0-.13,0-.19-.19-.19Zm8.58,15.7a.54.54,0,0,0-.38.14l-.09.1q-.15.14,0,.33a22.92,22.92,0,0,0,5.81,6,.32.32,0,0,0,.33,0,21.69,21.69,0,0,0,6.09-6.38c.07-.12,0-.19-.09-.19Z"/><path class="cls-1" d="M67,112.89a.26.26,0,0,0-.18.29v21q0,.23.18.18l4.27-1a.29.29,0,0,0,.23-.23c.13-1.38.19-3,.19-4.92V116.83a1.37,1.37,0,0,1,.4-1,1.29,1.29,0,0,1,1-.42,1.37,1.37,0,0,1,1,.42,1.35,1.35,0,0,1,.42,1v11.39c0,1.75-.06,3.32-.19,4.69a34.33,34.33,0,0,1-.73,4.48,18.4,18.4,0,0,1-4.17,8.39,22.34,22.34,0,0,1-4,3.72,1.54,1.54,0,0,1-1.1.24,1.49,1.49,0,0,1-1-.56,1.27,1.27,0,0,1-.33-1,1.06,1.06,0,0,1,.47-.82,18.59,18.59,0,0,0,7.5-11.15.16.16,0,0,0,0-.1.22.22,0,0,0-.15,0q-3.47.93-7.4,1.92a1.3,1.3,0,0,1-1.1-.12,1.54,1.54,0,0,1-.73-.86,1.23,1.23,0,0,1-.09-.43,1.11,1.11,0,0,1,.18-.61,1.17,1.17,0,0,1,.85-.61c.22-.06.7-.17,1.45-.32a.22.22,0,0,0,.19-.24V111.54a1,1,0,0,1,.49-.9,1.08,1.08,0,0,1,1.06-.09l.18,0a.51.51,0,0,0,.42,0,52.32,52.32,0,0,0,6.19-3.19,2.17,2.17,0,0,1,1.08-.33,1.93,1.93,0,0,1,1.27.52.91.91,0,0,1,.37.84,1,1,0,0,1-.51.8A52.53,52.53,0,0,1,67,112.89Zm13,24.57a.21.21,0,0,0-.24.23v4a.21.21,0,0,0,.24.23h8.25a1.37,1.37,0,0,1,1,.38,1.21,1.21,0,0,1,.4.93,1.28,1.28,0,0,1-.4,1,1.31,1.31,0,0,1-1,.4H80a.21.21,0,0,0-.24.24v3.75a1.29,1.29,0,0,1-.37.91,1.25,1.25,0,0,1-1.83,0,1.29,1.29,0,0,1-.37-.91V114.16a1.67,1.67,0,0,1,1.64-1.64h1.73c.16,0,.25-.06.28-.19.38-1.5.67-2.92.89-4.26a1.91,1.91,0,0,1,.66-1.08,1.55,1.55,0,0,1,1-.33h.19a1.36,1.36,0,0,1,1,.61,1.24,1.24,0,0,1,.17,1.12c-.66,2.13-1.07,3.44-1.22,3.94,0,.13,0,.19.19.19h3.46a1.63,1.63,0,0,1,1.2.49,1.57,1.57,0,0,1,.49,1.15v14.63a1.67,1.67,0,0,1-1.69,1.68H80c-.16,0-.24.07-.24.19v3.94c0,.12.08.19.24.19h7.78a1.35,1.35,0,0,1,1.36,1.35,1.22,1.22,0,0,1-.4.94,1.34,1.34,0,0,1-1,.38Zm6-22c0-.16-.06-.24-.19-.24H80a.21.21,0,0,0-.24.24v4.5a.21.21,0,0,0,.24.23H85.8c.13,0,.19-.08.19-.23Zm-6.24,12.14a.21.21,0,0,0,.24.23H85.8c.13,0,.19-.08.19-.23V123c0-.15-.06-.23-.19-.23H80a.21.21,0,0,0-.24.23Zm21.8-18.52a1.63,1.63,0,0,1,1.2.49,1.67,1.67,0,0,1,.49,1.2v27.05c0,1.53-.44,2.5-1.31,2.9a8.3,8.3,0,0,1-3.43.56,2,2,0,0,1-1.87-1.45,1.23,1.23,0,0,1,.16-1,.92.92,0,0,1,.87-.4h2c.47-.06.7-.28.7-.65V112.05c0-.12-.08-.19-.23-.19H94.38c-.16,0-.23.07-.23.19V148.8a1.34,1.34,0,0,1-.38,1,1.22,1.22,0,0,1-.94.4,1.37,1.37,0,0,1-1.36-1.36V110.74a1.64,1.64,0,0,1,.5-1.2,1.59,1.59,0,0,1,1.19-.49Z"/><path class="cls-1" d="M72.68,191.45a7.58,7.58,0,0,1,1.87.19,1.33,1.33,0,0,1,.61.46,1,1,0,0,1,.19.75,52.36,52.36,0,0,1-3.85,15.38.27.27,0,0,0,0,.33,17.86,17.86,0,0,0,8,4.33,46.29,46.29,0,0,0,11.37,1.2q9.09,0,12.89-.05a.89.89,0,0,1,.8.47,1.07,1.07,0,0,1,.19.56,1.26,1.26,0,0,1-.1.43l0,0a2.69,2.69,0,0,1-.87,1.15,2.07,2.07,0,0,1-1.29.45H90.86a50.13,50.13,0,0,1-12.14-1.27,19.2,19.2,0,0,1-8.53-4.59c-.12-.1-.22-.08-.28,0a23,23,0,0,1-5.16,6.19,1.53,1.53,0,0,1-1,.33h-.19a1.87,1.87,0,0,1-1.17-.52,1.32,1.32,0,0,1,.05-2,21.74,21.74,0,0,0,5.29-6.38.35.35,0,0,0,0-.37,29.34,29.34,0,0,1-4-7.92,1.44,1.44,0,0,1,.05-1.08,1.41,1.41,0,0,1,.8-.75,1.15,1.15,0,0,1,1,0,1.32,1.32,0,0,1,.68.75,27.45,27.45,0,0,0,2.86,6.05.16.16,0,0,0,.11,0s.09,0,.12-.1a45.25,45.25,0,0,0,2.81-11.06.17.17,0,0,0-.18-.19H66.3a.36.36,0,0,0-.33.19l-.18.38a1.87,1.87,0,0,1-.89.84,1.63,1.63,0,0,1-1.22.09,1.19,1.19,0,0,1-.75-1.73q2.81-5.2,6.51-13.22c.06-.12,0-.19-.09-.19H62.88a1.33,1.33,0,0,1-1-.42,1.35,1.35,0,0,1-.43-1,1.28,1.28,0,0,1,.43-1,1.35,1.35,0,0,1,1-.4h8.2a.12.12,0,0,0,.1-.05,1.66,1.66,0,0,1,.51-.09.93.93,0,0,1,.42.09l.66.19a.86.86,0,0,1,.61.52,1,1,0,0,1,0,.84q-1.55,3.38-5.72,11.86c-.06.13,0,.19.14.19Zm14.9,0a.17.17,0,0,0,.19-.19v-3.42c0-.15-.06-.23-.19-.23H75.68a1.21,1.21,0,0,1-.89-.38,1.24,1.24,0,0,1-.38-.91,1.26,1.26,0,0,1,.38-.92,1.2,1.2,0,0,1,.89-.37h11.9a.17.17,0,0,0,.19-.19v-3.28c0-.16-.06-.23-.19-.23H79.15a1.27,1.27,0,0,1-.94-.38,1.24,1.24,0,0,1-.38-.91,1.28,1.28,0,0,1,1.32-1.29h8.43c.13,0,.19-.08.19-.24v-1.82a1.49,1.49,0,0,1,.47-1.08,1.52,1.52,0,0,1,2.2,0,1.49,1.49,0,0,1,.47,1.08v1.82c0,.16.06.24.19.24H100a1.57,1.57,0,0,1,1.15.49,1.61,1.61,0,0,1,.49,1.15v4.45c0,.13.08.19.23.19h2.07a1.28,1.28,0,0,1,1.31,1.29,1.24,1.24,0,0,1-.38.91,1.27,1.27,0,0,1-.93.38h-2.07a.21.21,0,0,0-.23.23v4.55a1.63,1.63,0,0,1-.49,1.19,1.58,1.58,0,0,1-1.15.5H91.1c-.13,0-.19.06-.19.18v3.43c0,.15.06.23.19.23h9.7a1.2,1.2,0,0,1,.87.35,1.22,1.22,0,0,1,.35.87,1.28,1.28,0,0,1-.35.89,1.14,1.14,0,0,1-.87.37H91.1a.17.17,0,0,0-.19.19v3.66c0,.15.06.23.19.23h11.72a1.32,1.32,0,1,1,0,2.63H91.1c-.13,0-.19.08-.19.23v3.52a1.53,1.53,0,0,1-.47,1.12,1.52,1.52,0,0,1-2.2,0,1.53,1.53,0,0,1-.47-1.12v-3.52c0-.15-.06-.23-.19-.23H76.33a1.32,1.32,0,1,1,0-2.63H87.58c.13,0,.19-.08.19-.23v-3.66a.17.17,0,0,0-.19-.19H78.49a1.28,1.28,0,0,1-1.27-1.26,1.17,1.17,0,0,1,.38-.87,1.28,1.28,0,0,1,.89-.35h9.09c.13,0,.19-.08.19-.23v-3.43c0-.12-.06-.18-.19-.18H78.82a1.25,1.25,0,0,1-.94-.4,1.34,1.34,0,0,1-.38-.94,1.24,1.24,0,0,1,.38-.91,1.27,1.27,0,0,1,.94-.38Zm3.52-10.12c-.13,0-.19.07-.19.23v3.28a.17.17,0,0,0,.19.19h7.17c.16,0,.23-.06.23-.19v-3.28c0-.16-.07-.23-.23-.23Zm7.17,10.12c.16,0,.23-.06.23-.19v-3.42a.2.2,0,0,0-.23-.23H91.1c-.13,0-.19.08-.19.23v3.42a.17.17,0,0,0,.19.19Z"/><path class="cls-1" d="M63.49,253a1.3,1.3,0,0,1-1-.23,1.33,1.33,0,0,1-.56-1.13,1.11,1.11,0,0,1,.28-.75,1.3,1.3,0,0,1,.89-.56c.56-.06,1.54-.2,2.93-.42s2.49-.38,3.3-.47c.13,0,.19-.12.19-.28v-6.28a.17.17,0,0,0-.19-.19H63.77a1.16,1.16,0,0,1-.87-.37,1.26,1.26,0,0,1,0-1.74,1.16,1.16,0,0,1,.87-.37H78.11a1.13,1.13,0,0,1,.87.37,1.26,1.26,0,0,1,0,1.74,1.13,1.13,0,0,1-.87.37H72.63a.17.17,0,0,0-.19.19v5.81c0,.16.06.22.19.19l5.48-.89a1.25,1.25,0,0,1,.92.26,1.11,1.11,0,0,1,.44.82,1.6,1.6,0,0,1-.32,1,1.42,1.42,0,0,1-.9.52l-7.52,1.24Zm40.71,4.32a1.18,1.18,0,0,1,.4.91,1.28,1.28,0,0,1-.4.94,1.35,1.35,0,0,1-1,.4H87.68c-.07,0-.1,0-.1,0a.16.16,0,0,0,0,.1,38.19,38.19,0,0,0,7.38,4.1,53.14,53.14,0,0,0,8.93,3,.9.9,0,0,1,.66.66,1.56,1.56,0,0,1,.05.33,1.12,1.12,0,0,1-.19.61.39.39,0,0,1-.1.14,2.31,2.31,0,0,1-1.87,1,2.5,2.5,0,0,1-.66-.09,51.18,51.18,0,0,1-9.23-3.71,37.35,37.35,0,0,1-7.69-5.11l-.09,0a.08.08,0,0,0,0,.07v8.9a1.52,1.52,0,0,1-1.55,1.55,1.53,1.53,0,0,1-1.1-.44,1.5,1.5,0,0,1-.44-1.11v-8.86s0-.05-.05-.07a.09.09,0,0,0-.09,0,38.9,38.9,0,0,1-7.64,5.11,53.4,53.4,0,0,1-9.15,3.75,3,3,0,0,1-.7.09,2.28,2.28,0,0,1-1.83-1,1,1,0,0,1-.23-.61.88.88,0,0,1,0-.33.86.86,0,0,1,.65-.65A55.65,55.65,0,0,0,71.5,264a34.39,34.39,0,0,0,7.22-4.24.1.1,0,0,0,0-.1.08.08,0,0,0-.07,0H63.44a1.35,1.35,0,0,1-1-.4,1.32,1.32,0,0,1-.4-.94,1.22,1.22,0,0,1,.4-.91,1.37,1.37,0,0,1,1-.38h18c.12,0,.19-.08.19-.23v-2.11a1.44,1.44,0,0,1,.44-1.06,1.53,1.53,0,0,1,1.1-.44,1.5,1.5,0,0,1,1.1.44,1.44,1.44,0,0,1,.45,1.06v2.11c0,.15.06.23.19.23h18.28A1.37,1.37,0,0,1,104.2,257.33ZM70.47,234.08a.32.32,0,0,0-.32-.19H68.32a.33.33,0,0,0-.33.19A30.37,30.37,0,0,1,65,237.87a1.73,1.73,0,0,1-1.15.52,1.92,1.92,0,0,1-1.24-.33,1.15,1.15,0,0,1-.52-.89,1.25,1.25,0,0,1,.33-1,26.64,26.64,0,0,0,5.15-7.46,1.84,1.84,0,0,1,.85-.89,1.74,1.74,0,0,1,.75-.19,1.37,1.37,0,0,1,.47.1,1.2,1.2,0,0,1,.86.7,1.35,1.35,0,0,1,0,1.13c-.25.53-.52,1-.8,1.5-.06.12,0,.18.14.18H81.35a1.29,1.29,0,0,1,.91.38,1.29,1.29,0,0,1,0,1.87,1.29,1.29,0,0,1-.91.38H73.57c-.16,0-.21.06-.14.19.56,1,1,1.9,1.31,2.62a1.23,1.23,0,0,1-.07,1,1.29,1.29,0,0,1-.8.66,1.34,1.34,0,0,1-1.05-.12,1.49,1.49,0,0,1-.71-.8A36.49,36.49,0,0,0,70.47,234.08Zm31,20.11H99.25a3.89,3.89,0,0,1-2.53-.71,2.26,2.26,0,0,1-.65-1.19,12.44,12.44,0,0,1-.19-2.65v-7.13c0-.15-.06-.23-.19-.23H85.33c-.12,0-.18.08-.18.23v2.35q0,7-7.27,10.36a1.84,1.84,0,0,1-.8.18,2.19,2.19,0,0,1-1.54-.75,1,1,0,0,1-.24-.89.88.88,0,0,1,.56-.7,10.9,10.9,0,0,0,5-3.68,8.39,8.39,0,0,0,1.33-4.62v-3.09A1.67,1.67,0,0,1,83.88,240H97.19a1.67,1.67,0,0,1,1.2.49,1.63,1.63,0,0,1,.49,1.2v8.16a7,7,0,0,0,.09,1.5.53.53,0,0,0,.33.25,2.09,2.09,0,0,0,.61.07h1.41a2.29,2.29,0,0,0,1-.14,2,2,0,0,0,.56-1.07,23.91,23.91,0,0,0,.14-2.49.56.56,0,0,1,.35-.54.89.89,0,0,1,.73,0,1.76,1.76,0,0,1,1.12,1.64,10.7,10.7,0,0,1-.37,3.28,2.58,2.58,0,0,1-1.36,1.55A4.27,4.27,0,0,1,101.46,254.19ZM90.68,234.08a.35.35,0,0,0-.33-.19H86.79a.39.39,0,0,0-.33.19,27.54,27.54,0,0,1-3.19,3.61,1.88,1.88,0,0,1-1.24.56,2.24,2.24,0,0,1-1.34-.33,1,1,0,0,1-.51-.84,1.08,1.08,0,0,1,.37-.94,22.72,22.72,0,0,0,5.63-7.36,2.28,2.28,0,0,1,.93-.94,1.85,1.85,0,0,1,.8-.19,2.5,2.5,0,0,1,.47,0,1.27,1.27,0,0,1,.89.7,1.19,1.19,0,0,1,0,1.13,15.47,15.47,0,0,1-.84,1.55c-.07.12,0,.18.09.18h15.19a1.29,1.29,0,0,1,.91.38,1.29,1.29,0,0,1,0,1.87,1.29,1.29,0,0,1-.91.38H94.1c-.16,0-.19.06-.1.19a23.7,23.7,0,0,1,1.79,2.53,1.09,1.09,0,0,1,.11,1,1.2,1.2,0,0,1-.77.7,1.39,1.39,0,0,1-1.13,0,1.86,1.86,0,0,1-.89-.75A28.65,28.65,0,0,0,90.68,234.08Zm-3.57,12.75a.89.89,0,0,1-.42-.71.92.92,0,0,1,.28-.79,1.53,1.53,0,0,1,1.08-.52,1.56,1.56,0,0,1,.89.28,38.4,38.4,0,0,1,4.78,3.42,1.15,1.15,0,0,1,.47.94,1.45,1.45,0,0,1-.37,1,1.34,1.34,0,0,1-.94.39,1.31,1.31,0,0,1-1-.35A32.7,32.7,0,0,0,87.11,246.83Z"/><path class="cls-1" d="M66.44,300.52a.2.2,0,0,0-.23.23V305c0,.12.08.19.23.19h9.89a1.53,1.53,0,0,1,1.17.49,1.64,1.64,0,0,1,.47,1.19v10.88a1.55,1.55,0,0,1-.47,1.17,1.59,1.59,0,0,1-1.17.47H66.44a.21.21,0,0,0-.23.23v1.6a1.41,1.41,0,0,1-.42,1,1.43,1.43,0,0,1-1,.42,1.43,1.43,0,0,1-1.45-1.45v-32a1.57,1.57,0,0,1,.49-1.17,1.69,1.69,0,0,1,1.2-.47h2.2c.13,0,.22-.08.28-.23A47.86,47.86,0,0,0,69.11,282a1.85,1.85,0,0,1,.75-1.07,1.7,1.7,0,0,1,1-.33.9.9,0,0,1,.28,0h.19a1.44,1.44,0,0,1,1.08,1.83c-.63,1.66-1.32,3.28-2.07,4.88,0,.15,0,.23.14.23h5.39A1.63,1.63,0,0,1,77,288a1.53,1.53,0,0,1,.49,1.17v9.71A1.55,1.55,0,0,1,77,300a1.58,1.58,0,0,1-1.15.5Zm8.25-10c0-.13-.08-.19-.23-.19h-8c-.15,0-.23.06-.23.19v7a.21.21,0,0,0,.23.23h8a.21.21,0,0,0,.23-.23Zm.38,17.71q0-.18-.24-.18H66.44c-.15,0-.23.06-.23.18v8.21c0,.12.08.18.23.18h8.39q.24,0,.24-.18Zm29.48-24.86a1.44,1.44,0,0,1,.42,1,1.46,1.46,0,0,1-.42,1,1.34,1.34,0,0,1-1,.44H93.91c-.16,0-.23.07-.23.19v5.77a.2.2,0,0,0,.23.23h7.92a1.61,1.61,0,0,1,1.15.49,1.58,1.58,0,0,1,.49,1.15v19.69a5.08,5.08,0,0,1-.28,1.9,1.86,1.86,0,0,1-1.08,1,11,11,0,0,1-3.84.51,1.68,1.68,0,0,1-1.1-.4,2.37,2.37,0,0,1-.73-1,1.14,1.14,0,0,1,.14-.94.92.92,0,0,1,.8-.42c.78,0,1.59,0,2.44,0a.72.72,0,0,0,.56-.16.85.85,0,0,0,.14-.54V295.13a.21.21,0,0,0-.23-.24H93.91c-.16,0-.23.08-.23.24V322.5a1.44,1.44,0,0,1-.45,1.06,1.48,1.48,0,0,1-2.11,0,1.44,1.44,0,0,1-.44-1.06V295.13a.21.21,0,0,0-.24-.24h-5.9c-.13,0-.19.08-.19.24v20.34a1.35,1.35,0,0,1-.45,1,1.47,1.47,0,0,1-1.05.42,1.43,1.43,0,0,1-1.45-1.45v-21.8a1.58,1.58,0,0,1,.49-1.15,1.65,1.65,0,0,1,1.19-.49h7.36a.21.21,0,0,0,.24-.23V286c0-.12-.08-.19-.24-.19H81a1.36,1.36,0,0,1-1-.44,1.46,1.46,0,0,1-.42-1,1.44,1.44,0,0,1,.42-1,1.36,1.36,0,0,1,1-.45h22.55A1.35,1.35,0,0,1,104.55,283.34Z"/><rect class="cls-2" width="108" height="328"/></g></g></svg>