<svg xmlns="http://www.w3.org/2000/svg" width="52.393" height="52.393" viewBox="0 0 52.393 52.393">
  <g id="Group_175" data-name="Group 175" transform="translate(-1621.99 972.51)">
    <circle id="Ellipse_11" data-name="Ellipse 11" cx="26.196" cy="26.196" r="26.196" transform="translate(1621.99 -972.51)" fill="#ec7900"/>
    <g id="Group_174" data-name="Group 174">
      <path id="Path_1781" data-name="Path 1781" d="M1636.4-933.216a1.305,1.305,0,0,1-.926-.384,1.31,1.31,0,0,1,0-1.852l23.14-23.14a1.31,1.31,0,0,1,1.852,0,1.309,1.309,0,0,1,0,1.852l-23.14,23.14A1.3,1.3,0,0,1,1636.4-933.216Z" fill="#fff"/>
      <path id="Path_1782" data-name="Path 1782" d="M1659.538-933.216a1.305,1.305,0,0,1-.926-.384l-23.14-23.14a1.31,1.31,0,0,1,0-1.852,1.31,1.31,0,0,1,1.852,0l23.14,23.14a1.309,1.309,0,0,1,0,1.852A1.3,1.3,0,0,1,1659.538-933.216Z" fill="#fff"/>
    </g>
  </g>
</svg>
