<svg xmlns="http://www.w3.org/2000/svg" width="43.602" height="35.003" viewBox="0 0 43.602 35.003">
  <g id="Group_1425" data-name="Group 1425" transform="translate(-446.014 -828.016)">
    <path id="Path_63701" data-name="Path 63701" d="M474.134,836.463,462.069,846.9l-1.133-1.806Zm1.333,1.672-1.333-1.672L462.069,846.9Z"/>
    <path id="Path_63702" data-name="Path 63702" d="M474.134,836.463,462.069,846.9l-1.133-1.806Zm1.333,1.672-1.333-1.672L462.069,846.9Z" fill="none" stroke="#000" stroke-linecap="round" stroke-miterlimit="10" stroke-width="0.25"/>
    <path id="Path_63703" data-name="Path 63703" d="M476.466,840.009l-14.4,6.892,1.2,1.807Zm-1-1.874,1,1.874-14.4,6.892Z"/>
    <path id="Path_63704" data-name="Path 63704" d="M476.466,840.009l-14.4,6.892,1.2,1.807Zm-1-1.874,1,1.874-14.4,6.892Z" fill="none" stroke="#000" stroke-linecap="round" stroke-miterlimit="10" stroke-width="0.25"/>
    <path id="Path_63705" data-name="Path 63705" d="M478.066,846.868A15.964,15.964,0,1,0,462.1,862.894a15.995,15.995,0,0,0,15.964-16.026" fill="none" stroke="#000" stroke-linecap="round" stroke-linejoin="round" stroke-width="0.25"/>
    <line id="Line_71164" data-name="Line 71164" y1="8.766" x2="13.397" transform="translate(448.672 846.901)" fill="none" stroke="#000" stroke-linecap="round" stroke-linejoin="round" stroke-width="0.25"/>
    <line id="Line_71165" data-name="Line 71165" x2="17.463" y2="26.833" transform="translate(453.338 833.518)" fill="none" stroke="#000" stroke-linecap="round" stroke-linejoin="round" stroke-width="0.25"/>
    <line id="Line_71166" data-name="Line 71166" y1="8.632" x2="13.197" transform="translate(460.936 836.463)" fill="none" stroke="#000" stroke-linecap="round" stroke-linejoin="round" stroke-width="0.25"/>
    <line id="Line_71167" data-name="Line 71167" y1="8.699" x2="13.197" transform="translate(463.269 840.009)" fill="none" stroke="#000" stroke-linecap="round" stroke-linejoin="round" stroke-width="0.25"/>
    <g id="Group_1424" data-name="Group 1424">
      <path id="Path_63706" data-name="Path 63706" d="M481.8,837.613l3.486-8.129-6.15,4-.5-.774,7.218-4.7.6.928-3.486,8.129,6.151-4,.5.773-7.218,4.7Z"/>
    </g>
  </g>
</svg>
