<svg xmlns="http://www.w3.org/2000/svg" width="27.92" height="28.196" viewBox="0 0 27.92 28.196">
  <g id="Group_1513" data-name="Group 1513" transform="translate(-7194.67 -181.539)">
    <path id="Path_69713" data-name="Path 69713" d="M7220.818,209.735a1.758,1.758,0,0,1-1.253-.525L7195.19,184.6a1.8,1.8,0,0,1,0-2.531,1.759,1.759,0,0,1,2.507,0l24.375,24.615a1.8,1.8,0,0,1,0,2.531A1.758,1.758,0,0,1,7220.818,209.735Z" fill="#fff"/>
    <path id="Path_69714" data-name="Path 69714" d="M7196.443,209.735a1.758,1.758,0,0,1-1.253-.525,1.8,1.8,0,0,1,0-2.531l24.375-24.615a1.759,1.759,0,0,1,2.507,0,1.8,1.8,0,0,1,0,2.531L7197.7,209.21A1.758,1.758,0,0,1,7196.443,209.735Z" fill="#fff"/>
  </g>
</svg>
