<svg xmlns="http://www.w3.org/2000/svg" width="103.125" height="413.099" viewBox="0 0 103.125 413.099">
  <g id="Group_62" data-name="Group 62" transform="translate(-785.649 -2300.342)">
    <g id="Group_61" data-name="Group 61">
      <g id="Group_60" data-name="Group 60">
        <path id="Path_112" data-name="Path 112" d="M862.524,2329.029a53.625,53.625,0,0,0-4.688-4.5v19.5h-3.75V2324.9a35.751,35.751,0,0,1-6.187,9.938l-3-3.938a29.818,29.818,0,0,0,9.187-16.875h-7.312v-3.562h7.312v-9h3.563q1.5.189.187,1.125v7.875h6.75v3.562h-6.75v5.813a33.153,33.153,0,0,1,7.125,5.062Zm15-25.875v12h9.75v3.563h-9.75V2338.4h11.25v3.563h-26.25V2338.4h11.25v-19.687H864.4v-3.563h9.375v-13.125h3.562Q878.835,2302.218,877.524,2303.154Z" fill="#fff"/>
        <path id="Path_113" data-name="Path 113" d="M849.586,2357.829h16.5v-4.5h3.563q1.5.189.187,1.125v3.375h17.25v3.563H871.524v3.375h10.312v5.812h5.25v3h-5.25v6H871.524v1.875a16.79,16.79,0,0,0,3.375,3.188,21.6,21.6,0,0,0,5.812-4.875l3.188,2.437q.936.751-.75.938a43.682,43.682,0,0,1-5.625,3.75,25.587,25.587,0,0,0,10.687,4.687l-1.875,4.313q-9.941-3.564-14.812-10.125v8.437q0,3-2.625,3h-3.938l-.75-4.125h2.813a.665.665,0,0,0,.75-.75v-3.937q-3.937,2.065-10.688,5.437-.751,2.061-1.5.375l-1.687-3.75a102.674,102.674,0,0,0,13.875-5.812v-5.063h-10.5v-3h10.5v-3H853.336v8.813a21.987,21.987,0,0,1-4.687,14.25l-3-3a19.723,19.723,0,0,0,3.937-11.813Zm7.688,9.938v-3h10.5v-3.375H853.336v9.187h14.438v-2.812Zm3.562,12.937a13.222,13.222,0,0,1,3,3.938l-3.562,2.25a21.752,21.752,0,0,0-2.813-4.125Zm10.688-10.125h6.562v-2.812h-6.562Zm0,3v3h6.562v-3Z" fill="#fff"/>
        <path id="Path_114" data-name="Path 114" d="M857.649,2416.441h8.625v-9.375h3.562q1.5.189.188,1.125v8.25H885.4V2420H870.024v8.625h13.125v3.562H870.024v11.063h17.812v3.562H846.774v-3.562h19.5v-11.063H853.711v-3.562h12.563V2420h-9.75a29.512,29.512,0,0,1-6.75,10.312l-2.813-3q6.75-6.561,8.063-17.25l3.937.938q1.125.378-.187,1.125Q858.585,2413.07,857.649,2416.441Z" fill="#fff"/>
        <path id="Path_115" data-name="Path 115" d="M786.586,2341.029q14.809-1.687,17.438-7.875H785.836v-3.562h18.938v-2.625h3.562q1.5.189.188,1.125v1.5h20.062v3.562H810.961q4.684,5.44,16.875,6.75l-1.5,3.75q-14.251-2.065-18.937-9.562-2.439,8.064-19.688,10.5Zm4.688-35.625h10.687l2.25-5.062,3.563.562q1.688.563-.563,1.313l-2.062,3.187h17.437v22.875h-3.75V2308.4H795.024v20.063h-3.75Zm23.625,3.938,1.687,1.875q1.125,1.125-1.125.75-2.628.378-6.937.75v4.125h2.062l1.5-3.563,2.438.375q1.5.378-.188,1.125l-.937,2.063h3.937v2.25h-8.625a44.692,44.692,0,0,1,9.188,4.125l-1.688,2.812a65.205,65.205,0,0,0-7.687-3.937v3.937h-3.188v-3.937a26.938,26.938,0,0,1-8.062,5.062l-1.5-3.187a28.7,28.7,0,0,0,8.625-4.875h-7.688v-2.25h3.375a12.953,12.953,0,0,0-1.312-2.625l3-.563a10.209,10.209,0,0,1,1.312,3.188h2.25V2312.9l-7.687.375-.938-2.25A120.117,120.117,0,0,0,814.9,2309.342Z" fill="#fff"/>
        <path id="Path_116" data-name="Path 116" d="M829.336,2391.2l-1.125,3.563H808.524a20.415,20.415,0,0,1-13.5-4.688,54.056,54.056,0,0,1-6.375,5.813l-2.25-3.75a39.5,39.5,0,0,0,7.125-4.875v-11.813h-7.313v-3.562h11.063v15.375q4.122,3.938,11.625,3.937Zm-37.875-35.062a43.95,43.95,0,0,1,7.313,3.937l-2.063,3.75a56.977,56.977,0,0,0-7.312-4.312Zm30.375,30.187H805.149v2.438H801.4v-27h10.125v-7.688h3.562q1.5.189.188,1.125v6.563h10.312v26.625h-3.75Zm-10.312-14.437v-6.563h-6.375v6.563Zm-6.375,3.562v7.313h6.375v-7.313Zm10.125-10.125v6.563h6.562v-6.563Zm0,17.438h6.562v-7.313h-6.562Z" fill="#fff"/>
        <path id="Path_117" data-name="Path 117" d="M823.149,2432.427a24.044,24.044,0,0,0-3-2.25l-11.063.562v5.25H823.9v3.563H809.086v5.437h19.5v3.563H785.649v-3.563h19.687v-5.437H790.711v-3.563h14.625v-5.062l-12.375.375q-.751,1.5-1.312.187l-.938-3.937h6.938l4.125-6h-8.813v-3h28.5v3h-6.937q6.188,4.126,11.437,8.062Zm-13.875-24.375v3.187h17.812v9.938h-3.75V2414.8h-32.25v6.375h-3.75v-9.938h17.625v-4.687h4.125Q810.958,2406.93,809.274,2408.052Zm2.25,15.75,2.437-2.25h-7.687l-4.5,6,14.812-.375A59.262,59.262,0,0,0,811.524,2423.8Z" fill="#fff"/>
        <path id="Path_118" data-name="Path 118" d="M789.4,2463.242h35.812v35.813H789.4Zm3.75,3.563v28.687h28.312V2466.8Z" fill="#fff"/>
        <path id="Path_119" data-name="Path 119" d="M803.649,2520.167v3.562H786.024v-3.562Zm-1.688,34.5h-3.187v-1.125h-7.688v1.875H787.9v-15.188h14.062Zm-.937-41.25v3.562H788.649v-3.562Zm0,13.312v3.563H788.649v-3.563Zm0,6.563v3.562H788.649v-3.562Zm-2.25,9.937h-7.688v7.313h7.688Zm8.437-29.25h13.875v10.5c0,1,.437,1.5,1.313,1.5h1.312q1.5,0,1.5-3.562l3.75.937q-.189,6.188-4.312,6.188h-3.938q-3.375,0-3.375-3.188v-8.812h-6.375v4.5a11.02,11.02,0,0,1-6.187,10.312l-2.063-3q4.5-1.687,4.5-7.687Zm-2.437,22.5v-3.562h17.25l.562-.563,2.813,2.063q.936.94-.375.75a40.711,40.711,0,0,1-6.75,11.25q2.624,2.065,10.875,4.5l-1.125,3.937q-8.253-2.812-12.375-5.812a39.877,39.877,0,0,1-10.875,6.187l-1.875-3.562a27.554,27.554,0,0,0,10.125-5.063,37.6,37.6,0,0,1-5.25-10.125Zm15.75,0h-9.188a24.014,24.014,0,0,0,4.313,7.875A29.282,29.282,0,0,0,820.524,2536.479Z" fill="#fff"/>
        <path id="Path_120" data-name="Path 120" d="M785.836,2573.342h19.875v3.562H785.836Zm17.625,33.375h-3.75v-1.875h-7.687v2.625h-3.75v-15.375h15.187Zm-1.125-40.125v3.562H789.4v-3.562ZM789.4,2579.529h12.937v3.563H789.4Zm12.937,6.188v3.562H789.4v-3.562Zm-10.312,9.375v6.75h7.687v-6.75Zm23.062-14.625v-15h3.563q1.872.378.187,1.312v13.688H828.4v3.562h-9.563v23.25h-3.75v-23.25H804.961v-3.562Z" fill="#fff"/>
        <path id="Path_121" data-name="Path 121" d="M790.711,2660.642h-3.75v-41.813h40.125v41.813h-3.75v-1.5H790.711Zm0-4.5h32.625v-34.313H790.711Zm17.813-32.438v1.688h12.75v2.25h-12.75v1.875h10.5V2640.2h-1.688q1.688,1.314,4.125,3.375l-2.25,1.875-1.687-1.5-3.938.188v2.625h8.25v2.25h-8.25v3q0,3-2.812,3h-2.625l-.75-3h2.25a.663.663,0,0,0,.75-.75v-2.25h-9.375a33.046,33.046,0,0,1,3.75,3l-2.813,2.625a23.7,23.7,0,0,0-4.125-3.563l2.063-2.062h-7.875v-2.25H810.4v-2.438l-14.813.563q-.941,1.314-1.125-.188l-.375-2.25,11.25-.187V2640.2H795.4v-10.687h9.937v-1.875H792.774v-2.25h12.562v-2.813h3Q809.835,2622.768,808.524,2623.7Zm-3.188,9.938v-1.875h-6.75v1.875Zm0,2.25h-6.75v2.062h6.75Zm10.5-4.125h-7.312v1.875h7.312Zm0,4.125h-7.312v2.062h7.312Zm-2.625,4.312h-4.687v2.063l7.125-.188Z" fill="#fff"/>
        <path id="Path_122" data-name="Path 122" d="M787.336,2672.566h10.313l.375-.75,3.375,2.813-.75.75-3.563,11.812a21.638,21.638,0,0,1,3.563,8.063q1.872,10.314-5.625,10.312h-1.688l-.562-3.562h2.437q1.872,0,2.25-2.25.936-4.874-3.75-12.375l3-11.25h-5.625v37.312h-3.75Zm28.688,9.938-2.438,2.625a48.2,48.2,0,0,1,3.375,6.187,54.708,54.708,0,0,0,6.938-6.187l3,3c.123.627-.188.814-.938.562a56.542,56.542,0,0,1-7.687,5.438q5.809,8.253,11.25,11.062l-2.063,3.75q-3.937-2.434-8.625-8.812.936,8.064-.375,10.5a4.229,4.229,0,0,1-3.937,2.437H810.4l-.938-3.562H813.4q1.688,0,1.875-1.313a19.882,19.882,0,0,0,.187-7.125,34.153,34.153,0,0,1-15.187,10.875l-1.5-3.75a35.776,35.776,0,0,0,16.125-11.812l-.75-2.625a30.218,30.218,0,0,1-10.688,7.5l-1.5-3.563a29.089,29.089,0,0,0,10.875-7.5l-1.687-3a34.734,34.734,0,0,1-9.375,5.063l-1.875-3.188a27.544,27.544,0,0,0,11.625-6.562H800.836v-3.563h13.875a83.5,83.5,0,0,0,4.5-8.812l3.375,1.687q.747.751-.562.938a71.612,71.612,0,0,1-3.938,6.187h9.75v3.563Zm-3.938-6-3.375,2.062a41.444,41.444,0,0,0-3.937-5.25l3.187-2.062A38.661,38.661,0,0,1,812.086,2676.5Z" fill="#fff"/>
      </g>
    </g>
  </g>
</svg>
