<svg xmlns="http://www.w3.org/2000/svg" width="34.027" height="42.315" viewBox="0 0 34.027 42.315">
  <path id="Path_1758" data-name="Path 1758" d="M1261.668,996.205l-14.683-15.286a2.331,2.331,0,0,0-3.362,0l-14.682,15.286a2.331,2.331,0,0,0-.65,1.615v22.367a2.33,2.33,0,0,0,2.331,2.331h7.706a2.331,2.331,0,0,0,2.331-2.331v-10.254a2.331,2.331,0,0,1,2.33-2.331h4.63a2.331,2.331,0,0,1,2.331,2.331v10.254a2.33,2.33,0,0,0,2.33,2.331h7.707a2.331,2.331,0,0,0,2.331-2.331V997.82A2.331,2.331,0,0,0,1261.668,996.205Zm-16.6,3.007a3.263,3.263,0,1,1,3.263-3.263A3.263,3.263,0,0,1,1245.071,999.212Z" transform="translate(-1228.291 -980.203)" fill="#000"/>
</svg>
