<svg xmlns="http://www.w3.org/2000/svg" width="38.541" height="41.567" viewBox="0 0 38.541 41.567">
  <g id="Group_32" data-name="Group 32" transform="translate(-846.527 -980.577)">
    <circle id="Ellipse_2" data-name="Ellipse 2" cx="5.138" cy="5.138" r="5.138" transform="translate(860.879 980.577)" fill="#000"/>
    <path id="Path_1750" data-name="Path 1750" d="M873.765,1000.8a8.013,8.013,0,0,0-7.966-7.151h0a8.014,8.014,0,0,0-7.967,7.151l-1.348,12.464a8.013,8.013,0,0,0,7.966,8.875h2.7a8.012,8.012,0,0,0,7.966-8.875Z" fill="#000"/>
    <path id="Path_1751" data-name="Path 1751" d="M854.311,993.308a3.5,3.5,0,1,0-4.954,0A3.5,3.5,0,0,0,854.311,993.308Z" fill="#000"/>
    <path id="Path_1752" data-name="Path 1752" d="M853.347,996.259l-4.869,2.027a3.166,3.166,0,0,0-1.707,4.14l4.847,11.645.011.028a1.331,1.331,0,0,0,2.525-.454l1.549-15.956a1.256,1.256,0,0,0-.291-.968A1.837,1.837,0,0,0,853.347,996.259Z" fill="#000"/>
    <path id="Path_1753" data-name="Path 1753" d="M882.24,993.308a3.5,3.5,0,1,0-4.953,0A3.5,3.5,0,0,0,882.24,993.308Z" fill="#000"/>
    <path id="Path_1754" data-name="Path 1754" d="M883.112,998.283l-4.862-2.024a1.834,1.834,0,0,0-2.027.422,1.278,1.278,0,0,0-.329,1.011l1.553,15.988a1.323,1.323,0,0,0,2.533.391h0l4.843-11.638A3.173,3.173,0,0,0,883.112,998.283Z" fill="#000"/>
  </g>
</svg>
