<svg xmlns="http://www.w3.org/2000/svg" width="54.018" height="482.056" viewBox="0 0 54.018 482.056">
  <g id="Group_1428" data-name="Group 1428" transform="translate(-1675.332 -106.944)">
    <path id="Path_63707" data-name="Path 63707" d="M1727.78,111.506l.693-.63.7.582a.19.19,0,0,1,.088.181.232.232,0,0,1-.253.242H1719.3l-.089-.375Z"/>
    <path id="Path_63708" data-name="Path 63708" d="M1722.951,125.178a5.906,5.906,0,0,1,2.056,1.041,1.309,1.309,0,0,1,.529.932c0,.254-.044.545-.341.545-.132,0-.4-.291-.792-.884a5.266,5.266,0,0,0-1.529-1.452Z"/>
    <path id="Path_63709" data-name="Path 63709" d="M1729.221,145.13l-.258.9h-4.726a3.671,3.671,0,0,1-2.793-1.135,6.266,6.266,0,0,1-1.633,1.654l-.559-.945a5.628,5.628,0,0,0,1.633-1.465,11.859,11.859,0,0,1-1.074-2.506l.731-.188a9.2,9.2,0,0,0,.773,1.8,7.413,7.413,0,0,0,.387-2.317V140.5h-.9l-.386.614-.817-.378q.945-1.749,1.719-3.5h-1.762v-.9h1.934l.172-.236.859.709c.057.063,0,.126-.172.188l-1.16,2.6h1.375v.709a9.283,9.283,0,0,1-.687,3.829,3.4,3.4,0,0,0,2.707.992Zm-4.039-6.853v-.8h-2.019v-.756h2.019v-1.181h.688c.228.031.243.126.043.283v.9h2.234v1.56h.859v.756h-.859v1.607h-2.234v.662h2.363v.756h-2.363v.9h2.879v.755h-2.879v1.04h-.731v-1.04h-2.535v-.755h2.535v-.9h-1.976V141.3h1.976v-.662h-2.019v-.756h2.019v-.851h-2.793v-.756Zm2.235-.8h-1.5v.8h1.5Zm0,1.56h-1.5v.851h1.5Z"/>
    <path id="Path_63710" data-name="Path 63710" d="M1721.573,155.9h1.5l.515-1.229h-2.406v1.135a8.227,8.227,0,0,1-1.2,4.868l-.774-.614a7.163,7.163,0,0,0,1.118-4.443v-5.01h7.863v2.41h-7v.756h7.606v.9h-2.235a13.232,13.232,0,0,1,2.02,1.844l-.731.566-.6-.661-1.891.142V157.7h2.664v.9h-2.664v1.135h3.738v.9h-8.207v-.9h3.61V158.6h-2.664v-.9h2.664v-1.04l-2.321.094c-.057.252-.158.268-.3.047Zm5.758-3.639v-.9h-6.145v.9Zm-2.707,2.41-.731,1.229,2.707-.094-.73-.615.515-.52Z"/>
    <path id="Path_63711" data-name="Path 63711" d="M1721.616,175.387h-.731v-5.01a10.435,10.435,0,0,1-1.246,2.317l-.515-.945a10.863,10.863,0,0,0,1.761-3.924h-1.418v-.9h1.418v-2.411h.688c.228.032.243.127.043.284v2.127h1.074v.9h-1.074v1.134a13.724,13.724,0,0,1,1.461,1.182l-.43.992a11.236,11.236,0,0,0-1.031-1.228Zm1.89-8.177h-.644v-.567h.644v-1.275h1.977v-.852h.687c.229.032.244.127.043.284v.568h2.02v1.275h.9v.567h-.9v1.277h-2.02v.472h2.149v2.127h-2.235c.172.064.143.126-.085.19l-.3.425h3.437v.757H1727.8a4.646,4.646,0,0,1-.687,1.228,19.516,19.516,0,0,1,1.976.851l-.429.9a19.268,19.268,0,0,0-2.106-1.087,7.5,7.5,0,0,1-3.781,1.134l-.172-.851a8.247,8.247,0,0,0,3.137-.662q-.559-.235-1.16-.425l-.344.473-.645-.473.817-1.086h-1.676V171.7h2.148l.43-.615h-1.934v-2.127h2.106v-.472h-1.977V167.21Zm1.977,2.5h-1.375v.616h1.375Zm0-3.591h-1.246v.519h1.246Zm0,1.086h-1.246v.521h1.246Zm1.5,5.248h-1.676l-.344.519a14.656,14.656,0,0,1,1.418.426A2.631,2.631,0,0,0,1726.987,172.458Zm.515-6.334h-1.289v.519h1.289Zm0,1.086h-1.289v.521h1.289Zm.129,2.5h-1.418v.616h1.418Z"/>
    <path id="Path_63712" data-name="Path 63712" d="M1723.764,181.73l.516.993H1726l.343-1.04H1721.1v4.3a8.111,8.111,0,0,1-.988,3.971l-.731-.709a6.893,6.893,0,0,0,.86-3.545v-6.286h8.164v2.268h-1.762l.559.283c.114.127.071.205-.129.237l-.258.52h1.805v3.072h-6.875v-3.072h1.632l-.386-.567Zm-2.664-.8h6.445v-.756H1721.1Zm1.5,3.026h2.148v-.662H1722.6Zm0,1.276h2.148v-.709H1722.6Zm.859,4.773h-.859v-3.639h5.285v3.5h-.859v-.426h-3.567Zm0-2.41h3.567v-.662h-3.567Zm3.567,1.277v-.709h-3.567v.709Zm-1.418-4.916h2.148v-.662h-2.148Zm2.148,1.276v-.709h-2.148v.709Z"/>
    <path id="Path_63713" data-name="Path 63713" d="M1729.006,203.152v1.039h-9.539v-1.039h4.3v-2.033H1720.5V200.08h7.39v1.039h-3.265v2.033Zm-.644-5.294q-.3,1.229-1.117,1.228h-1.633c-.545,0-.817-.3-.817-.9v-2.316h-1.375v.567q0,2.127-2.836,3.214l-.429-.9q2.4-.8,2.406-2.315v-.567h-1.977v1.607h-.988v-2.506h4.125v-1.323h.946c.228.032.243.127.042.284v1.039h4.125V197.2h-.988v-1.323h-2.191v1.985q0,.331.387.331h.945q.429,0,.558-.709Z"/>
    <path id="Path_63714" data-name="Path 63714" d="M1723.592,212.377h-3.05v6.57h-.86V208.6h3.91Zm-.859-2.268v-.757h-2.191v.757Zm0,.756h-2.191v.756h2.191Zm3.48,2.316v4.632h-.859v-.378h-2.277v.756h-.86v-5.01Zm-.859.756h-2.277v1.04h2.277Zm0,1.8h-2.277v.945h2.277Zm2.449,2.08v-5.436h-3.094V208.6h3.954v9.548c0,.5-.23.756-.688.756h-.859l-.086-.9h.6C1727.746,218,1727.8,217.939,1727.8,217.813Zm0-7.7v-.757h-2.234v.757Zm0,.756h-2.234v.756h2.234Z"/>
    <path id="Path_63715" data-name="Path 63715" d="M1723.42,224.676v.9h-4.039v-.9Zm-.386,8.7h-.731v-.285h-1.761v.473h-.731v-3.828h3.223Zm-.215-10.4v.9h-2.836v-.9Zm0,3.356v.9h-2.836v-.9Zm0,1.654v.9h-2.836v-.9Zm-.516,2.505h-1.761v1.843h1.761Zm1.934-7.373h3.18v2.646c0,.253.1.378.3.378h.3q.344,0,.344-.9l.859.236q-.043,1.56-.988,1.56h-.9q-.774,0-.774-.8v-2.222H1725.1v1.135a2.826,2.826,0,0,1-1.418,2.6l-.472-.756a1.86,1.86,0,0,0,1.031-1.939Zm-.559,5.672v-.9h3.953l.129-.141.645.519c.142.158.114.222-.086.19a10.48,10.48,0,0,1-1.547,2.835,7.973,7.973,0,0,0,2.492,1.135l-.258.992a10.611,10.611,0,0,1-2.836-1.464,8.984,8.984,0,0,1-2.492,1.559l-.429-.9a6.108,6.108,0,0,0,2.32-1.277,9.809,9.809,0,0,1-1.2-2.551Zm3.61,0h-2.106a6.279,6.279,0,0,0,.988,1.985A7.548,7.548,0,0,0,1727.288,228.789Z"/>
    <path id="Path_63716" data-name="Path 63716" d="M1722.174,242.516h-.859A9.654,9.654,0,0,1,1719.94,248l-.688-.615a8.3,8.3,0,0,0,1.29-5.057v-2.221h-1.118v-.9h1.418v-1.986h.817c.228.032.243.127.043.284v1.7h1.632v.9h-2.062v1.654h1.633l-.086,4.584q-.043,1.608-.988,1.608h-.688l-.086-.9h.6c.228,0,.372-.236.429-.709Zm3.094-5.1q.344.141,0,.283-.172.615-.344,1.087h3.953v.9h-4.253a8.307,8.307,0,0,1-1.29,1.986l-.558-.709a7.256,7.256,0,0,0,1.719-3.782Zm1.934,7.987-.086-.756h.343c.115,0,.172-.062.172-.189v-2.079l-1.16.424v3.215h-.73v-2.978l-.946.331v3.261q0,.331.3.331h2.75q.344,0,.43-.472l.129-.709.859.236-.172,1.039a.908.908,0,0,1-1.031.8h-3.223q-.773,0-.773-.851v-3.4l-.559.189-.214-.9.773-.236v-1.8h.687c.229.032.244.126.043.283v1.276l.946-.331V240.2h.687q.344.048.043.284v1.37l1.2-.425.129-.189.645.472-.086.19v2.788q0,.709-.473.709Z"/>
    <path id="Path_63717" data-name="Path 63717" d="M1725.311,258.017a42.785,42.785,0,0,1-4.812,3.451c-.058.251-.159.267-.3.047l-.43-.992a9.509,9.509,0,0,0,1.074-.567l-.258-7.043.9.094c.228.033.243.126.043.284l.215,6.192a26.92,26.92,0,0,0,3.136-2.269Zm1.5-5.388.816.1c.229.031.244.126.043.283v3.4a6.407,6.407,0,0,1-.515,2.741l2.062,1.844-.644.945-1.805-1.985a6.56,6.56,0,0,1-4.039,2.458l-.344-1.04a5.585,5.585,0,0,0,3.309-1.56,5.406,5.406,0,0,0,1.117-3.734Zm-3.309.52a7.342,7.342,0,0,1,1.59,1.749l-.859.709a6.83,6.83,0,0,0-1.461-1.7Z"/>
    <path id="Path_63718" data-name="Path 63718" d="M1723.206,268.189v.9h-3.825v-.9Zm-.946,8.6v-.284h-1.718v.52h-.731V273.2h3.18v3.592Zm.6-9.359h-2.922v-.9h2.922Zm0,3.309h-2.922v-.9h2.922Zm0,1.654h-2.922v-.9h2.922Zm-.6,1.56h-1.718v1.8h1.718Zm1.332,3.214-.343-.993a10.221,10.221,0,0,0,5.027-5.057l.644.567q.172.283-.128.284a11.861,11.861,0,0,1-1.375,2.127,9.079,9.079,0,0,1,1.718,1.843l-.73.993a7.9,7.9,0,0,0-1.59-2.127A12.524,12.524,0,0,1,1723.592,277.169Zm2.278-5.294a8.307,8.307,0,0,0,1.461-2.08l.644.568q.171.283-.129.236a10.554,10.554,0,0,1-3.867,4.065l-.516-.851a6.339,6.339,0,0,0,1.762-1.229,15.843,15.843,0,0,0-1.633-1.559l.6-.662c.114.1.228.189.344.283a17.434,17.434,0,0,0,.945-1.606h-1.762v-.9h1.977V266.25h.816c.229.033.243.127.043.285v1.606h2.406v.9h-2.492a13.184,13.184,0,0,1-1.332,2.079Q1725.526,271.5,1725.87,271.875Z"/>
    <path id="Path_63719" data-name="Path 63719" d="M1725.87,285.5h-1.246v.945h1.117v.757h-1.117v1.039h1.718V289h-1.718v1.89q0,.662-.559.661h-1.246l-.129-.9h.9c.115,0,.172-.064.172-.19V289H1722v-.757h1.762V287.2h-1.2v-.757h1.2V285.5h-1.246a7.407,7.407,0,0,1-2.75,5.388l-.516-.945a6.712,6.712,0,0,0,2.407-4.963h-2.106v-.9h3.051v.662h1.16v-1.56h.9l1.246-.945H1720.5v-.9h6.187l.3-.236.558.756q.258.426-.171.331l-2.75,1.8v.757h1.117v-.851h.73v.567a3.985,3.985,0,0,0,.086.945,7.558,7.558,0,0,0,1.547-1.8l.688.757q.213.378-.172.283a11.141,11.141,0,0,1-1.805,1.7,7.685,7.685,0,0,0,2.277,3.4l-.687.994A8.379,8.379,0,0,1,1725.87,285.5Z"/>
    <path id="Path_63720" data-name="Path 63720" d="M1721.057,304.083v-5.2h6.445v5.2h-1.8a9.947,9.947,0,0,0,2.965,1.086l-.344.993a9.188,9.188,0,0,1-3.18-1.324l.43-.755h-2.707l.558.709c.086.157.014.22-.214.188a9.521,9.521,0,0,1-2.879,1.229l-.43-.945a7.612,7.612,0,0,0,2.836-1.181Zm7.219-8.461v2.552h-8.121v-2.552Zm-5.629.755h-1.762v1.04h1.762Zm-.859,3.971h4.984v-.709h-4.984Zm4.984.756h-4.984v.709h4.984Zm0,1.466h-4.984v.756h4.984Zm-1.676-6.193h-1.719v1.04h1.719Zm2.449,0h-1.718v1.04h1.718Z"/>
    <path id="Path_63721" data-name="Path 63721" d="M1720.155,310.756h8.207v9.029h-8.207Zm.859.9v7.231h6.488v-7.231Z"/>
    <path id="Path_63722" data-name="Path 63722" d="M1723.163,333.086v.851l-3.266.852q-.172.471-.3.046l-.258-.945,1.547-.283v-3.5h-1.5v-.756h1.5v-1.418h-.644a7.439,7.439,0,0,1-.645.945l-.472-.756a12.09,12.09,0,0,0,1.8-3.829l.774.189c.286.127.257.268-.086.426a6.882,6.882,0,0,1,1.676,1.607l-.516.709a7.437,7.437,0,0,0-1.461-1.607q-.345.851-.688,1.559h1.891v.757h-.9v1.418h1.461v.756h-1.461v3.308Zm-3.008-2.173a8.351,8.351,0,0,1,.387,1.985l-.774.142a11.735,11.735,0,0,0-.387-1.986Zm1.89,1.842q.129-.945.215-2.127l.731.143c.258.063.271.157.043.283q-.129.8-.344,1.844Zm2.278-7.562.687.379q.472.282-.086.283a12.34,12.34,0,0,1-1.5,2.883l-.644-.661A11.751,11.751,0,0,0,1724.323,325.193Zm1.375,2.742v-3.593h.687c.229.033.243.127.043.284v3.309h1.762v6.428q0,.756-.6.756h-.945l-.129-.756h.774c.114,0,.171-.064.171-.19v-1.89h-2.707v2.93h-.73v-7.278Zm1.761,1.8v-1.04h-2.707v1.04Zm0,.756h-2.707v1.04h2.707Zm-.644-4.915.644-.426a12.6,12.6,0,0,0,1.891,2.505l-.687.662A12.762,12.762,0,0,1,1726.815,325.572Z"/>
    <path id="Path_63723" data-name="Path 63723" d="M1719.682,342.739l-.387-.946a7.665,7.665,0,0,0,2.407-2.93l.773.1c.315.032.3.125-.043.283a4.968,4.968,0,0,1-.344.709h1.934l.473-1.134.73.1c.286.063.3.157.043.283l-.344.756h3.653v.757h-3.739v.614h2.879v.756h-2.879v.615h2.879v.756h-2.879v.662h4.082v.756h-7.261v.472h-.86V341.7A8.416,8.416,0,0,1,1719.682,342.739Zm6.961,6.759v-.473h-4.9v.662h-.86v-3.923h6.617V349.5Zm-4.984-8.791v.614h2.32v-.614Zm0,1.985h2.32v-.615h-2.32Zm2.32,1.418v-.662h-2.32v.662Zm2.664,4.017v-1.465h-4.9v1.465Z"/>
    <path id="Path_63724" data-name="Path 63724" d="M1729.006,357.247l-.429,1.086a9.706,9.706,0,0,1-4.6-3.733,6.921,6.921,0,0,1-2.148,2.788h4.769v.9h-4.812v-.851a7.965,7.965,0,0,1-1.8,1.229l-.6-.9a7.97,7.97,0,0,0,4.125-4.3l1.118.237c.2.032.185.126-.043.283A8.887,8.887,0,0,0,1729.006,357.247Zm-7.132,6.853h-.86v-4.68h6.4v4.538h-.86v-.52h-4.683Zm0-1.559h4.683v-2.222h-4.683Z"/>
    <path id="Path_63725" data-name="Path 63725" d="M1722.69,372.157l.6-.425a6.073,6.073,0,0,1,1.031,1.984l-.688.426-.215-.567-1.16.141v5.106h-.859v-5.011l-1.676.142c-.029.221-.1.268-.215.142l-.129-1.135h.946l.773-.992q-.817-.708-1.676-1.324l.516-.709.43.284,1.332-2.363.816.519c.086.159.043.221-.129.19l-1.375,2.079.645.521,1.246-1.891.773.519c.086.159.043.221-.129.19l-2.191,2.977,1.719-.094A1.577,1.577,0,0,0,1722.69,372.157Zm-3.18,5.341a11.383,11.383,0,0,0,.516-2.742l.859.142c.086.1.057.189-.086.284a13.155,13.155,0,0,1-.515,2.647Zm3.309-2.694.773-.236a8.567,8.567,0,0,1,.559,2.505l-.9.236A8.991,8.991,0,0,0,1722.819,374.8Zm2.836-4.49h3.222l-.171,6.428q-.045,1.842-1.247,1.843h-1.632l-.129-1.04h1.375c.486,0,.744-.314.773-.945l.129-5.389h-2.621a6.866,6.866,0,0,1-.687,1.324l-.731-.567a9.882,9.882,0,0,0,1.418-4.017l.9.378q.172.189-.129.236A12.122,12.122,0,0,1,1725.655,370.314Zm-.172,2.93a6.492,6.492,0,0,1,1.5,1.89l-.731.616a5.371,5.371,0,0,0-1.375-1.891Z"/>
    <path id="Path_63726" data-name="Path 63726" d="M1722.389,389.5a10.477,10.477,0,0,1-2.449,2.7l-.516-.945a11.773,11.773,0,0,0,3.953-5.625h-2.964v-.9h1.5a8.088,8.088,0,0,0-.688-1.418l.859-.426a7.249,7.249,0,0,1,.731,1.371l-.731.473h1.59a15.033,15.033,0,0,0,.645-2.127l.73.189q.344.048,0,.284-.214.9-.472,1.654h2.492l-.3,1.891h1.16l-.344,1.985h1.289l-.386,3.687q-.087.85-1.032.85h-1.16v-.9h.9c.314,0,.486-.125.515-.378l.258-2.364Zm-.988,3.121a11.583,11.583,0,0,0,.43-2.127l.816.141a14.923,14.923,0,0,1-.3,2.316Zm5.371-4.018.215-1.088h-3.524a5.848,5.848,0,0,1-.558,1.088Zm-3.438,3.97a11.7,11.7,0,0,0-.171-1.986l.773-.046a4.65,4.65,0,0,1,.3,1.937Zm.516-5.955h2.106l.171-.993h-1.89A8.2,8.2,0,0,1,1723.85,386.618Zm1.117,5.577a15.023,15.023,0,0,0-.258-1.654l.817-.19q.171.663.344,1.607Zm1.547-.473a13.766,13.766,0,0,0-.344-1.418l.731-.189a3.572,3.572,0,0,1,.43,1.324Z"/>
    <path id="Path_63727" data-name="Path 63727" d="M1724.624,406.29h4.253v.9H1719.6v-.9h4.168v-2.93H1720.8v-.9h2.965v-2.316h-3.781v-.9h4.211a8.436,8.436,0,0,0-1.547-1.56l.73-.709a10.023,10.023,0,0,1,1.719,1.606l-.773.663h4.082v.9h-3.781v2.316h2.964v.9h-2.964Z"/>
    <path id="Path_63728" data-name="Path 63728" d="M1729.221,413.058a1.713,1.713,0,0,1-.472,1.182,1.372,1.372,0,0,1-2.149,0,1.713,1.713,0,0,1,0-2.364,1.37,1.37,0,0,1,2.149,0A1.715,1.715,0,0,1,1729.221,413.058Zm-.429,0a1.236,1.236,0,0,0-.344-.85.979.979,0,0,0-1.547,0,1.223,1.223,0,0,0,0,1.7.98.98,0,0,0,1.547,0A1.237,1.237,0,0,0,1728.792,413.058Z"/>
    <path id="Path_63729" data-name="Path 63729" d="M1706.017,115.621l.692-.63.694.569a.225.225,0,0,1,.088.193.231.231,0,0,1-.242.243h-9.891l-.076-.375Zm-1.211-7.091.7-.63.694.569a.23.23,0,0,1,.088.194.232.232,0,0,1-.253.242h-7.558l-.089-.375Z"/>
    <path id="Path_63730" data-name="Path 63730" d="M1701.055,125.178a5.914,5.914,0,0,1,2.057,1.041,1.311,1.311,0,0,1,.528.932c0,.254-.044.545-.341.545-.132,0-.4-.291-.792-.884a5.254,5.254,0,0,0-1.529-1.452Z"/>
    <path id="Path_63731" data-name="Path 63731" d="M1699.119,145.45q3.008-.756,2.836-3.4h-2.536a5.789,5.789,0,0,1-1.418,4.16l-.6-.8a5.293,5.293,0,0,0,1.2-3.828v-3.923h7.6v2.741h-.859v-.236h-2.191v.992h4.039v.9h-4.383l-.043.8h3.48l-.343,2.647q-.087.8-.817.8h-1.461l-.043-.9h1.032a.423.423,0,0,0,.472-.425l.172-1.229H1702.6q-.344,1.75-3.094,2.742Zm7.648-8.556h-8.98V136h8.98Zm-1.418,2.506v-.993h-5.887v.993Zm-5.887.756v.992h2.836v-.992Z"/>
    <path id="Path_63732" data-name="Path 63732" d="M1699.677,155.9h1.5l.516-1.229h-2.406v1.135a8.227,8.227,0,0,1-1.2,4.868l-.773-.614a7.17,7.17,0,0,0,1.117-4.443v-5.01h7.863v2.41h-7v.756h7.6v.9h-2.234a13.175,13.175,0,0,1,2.019,1.844l-.73.566-.6-.661-1.891.142V157.7h2.665v.9h-2.665v1.135h3.739v.9h-8.207v-.9h3.609V158.6h-2.664v-.9h2.664v-1.04l-2.32.094q-.087.378-.3.047Zm5.758-3.639v-.9h-6.144v.9Zm-2.707,2.41L1702,155.9l2.707-.094-.731-.615.516-.52Z"/>
    <path id="Path_63733" data-name="Path 63733" d="M1706.466,175.1h-.859v-.473h-6.574v.662h-.86v-7.468h3.524l.344-1.56h-4.383v-.9h9.324v.9h-3.953l-.473,1.56h3.91Zm-5.929-1.371v-5.01h-1.5v5.01Zm2.707-5.01H1701.4v1.229h1.848Zm0,3.072v-1.087H1701.4v1.087Zm0,1.938v-1.182H1701.4v1.182Zm2.363-5.01h-1.5v5.01h1.5Z"/>
    <path id="Path_63734" data-name="Path 63734" d="M1700.794,180.076l-.859.236v1.7h1.074v.9h-1.074v1.229a9.518,9.518,0,0,1,1.375,1.134l-.43.9q-.473-.471-.945-.945v4.821h-.859v-4.774a6.121,6.121,0,0,1-1.246,2.127l-.6-.756a8.765,8.765,0,0,0,1.848-3.734h-1.5v-.9h1.5v-1.466l-1.418.285-.215-.852a11.963,11.963,0,0,0,3.18-.851l.472.851Q1701.18,180.124,1700.794,180.076Zm.043,9.17a6.567,6.567,0,0,0,2.192-1.087h-1.2v-4.207h4.64v4.207h-1.375a8.177,8.177,0,0,0,2.063.945l-.3.851a5.379,5.379,0,0,1-2.277-1.135l.429-.661h-1.89l.472.756q.129.284-.257.141a9.293,9.293,0,0,1-2.149,1.087Zm3.7-6.618h2.707v.756h-6.016v-.756h2.449v-.614h-1.8v-.567h1.8v-.568H1701.4v-.755h2.277v-.946h.817c.228.031.243.126.043.283v.663h2.406v.755h-2.406v.568h1.89v.567h-1.89Zm-1.977,2.5h3.18v-.614h-3.18Zm0,1.229h3.18V185.7h-3.18Zm0,1.229h3.18v-.662h-3.18Z"/>
    <path id="Path_63735" data-name="Path 63735" d="M1703.416,199.937a42.822,42.822,0,0,1-4.813,3.451q-.087.377-.3.047l-.429-.992a9.505,9.505,0,0,0,1.074-.568l-.258-7.042.9.094q.344.048.043.283l.215,6.193a27.156,27.156,0,0,0,3.137-2.269Zm1.5-5.388.817.1c.228.031.243.126.043.283v3.4a6.388,6.388,0,0,1-.516,2.741l2.063,1.844-.645.945-1.805-1.986a6.548,6.548,0,0,1-4.039,2.458l-.343-1.04a5.575,5.575,0,0,0,3.308-1.559,5.406,5.406,0,0,0,1.117-3.734Zm-3.308.52a7.386,7.386,0,0,1,1.59,1.749l-.86.709a6.8,6.8,0,0,0-1.461-1.7Z"/>
    <path id="Path_63736" data-name="Path 63736" d="M1700.88,216.4,1698,217.529q-.043.331-.214.142l-.344-1.088,1.332-.424V212.33h-1.246v-.9h1.246v-2.647h.816q.344.048.043.284v2.363h1.117v.9h-1.117v3.592l1.246-.472Zm5.286.9.257-.992.946.331-.215.9q-.258,1.135-1.246,1.135h-3.567c-.515,0-.773-.269-.773-.8v-4.49l-1.117.472-.258-.945,1.375-.52v-2.694h.816q.344.048.043.283v2.08l1.031-.425v-3.214h.817c.228.032.243.127.043.284v2.6l1.461-.616.086-.188.9.661-.172.143v3.591c0,.5-.229.756-.687.756h-.86l-.215-.9h.731c.114,0,.172-.063.172-.19v-2.836l-1.418.568v4.064h-.86v-3.733l-1.031.425v4.348c0,.253.1.378.3.378h2.879A.551.551,0,0,0,1706.166,217.292Z"/>
    <path id="Path_63737" data-name="Path 63737" d="M1704.576,231.247a7.584,7.584,0,0,1-3.223,2.22l-.43-1.039a6.359,6.359,0,0,0,3.137-1.938,8.554,8.554,0,0,1-1.074-3.119,5.7,5.7,0,0,1-.945,1.842l-.559-.8.387-.568h-1.2v3.073l1.546-.426.129.9-4.383,1.277c-.029.219-.1.266-.214.141l-.258-1.181.558-.1v-5.246h.817c.228.031.243.126.043.283v4.773l.9-.188v-6.617h-2.148v-.9h4.683v.9h-1.675v2.41h1.246v.8a13.274,13.274,0,0,0,1.246-5.01l.988.283q.171.189-.129.236a11.792,11.792,0,0,1-.387,1.891h3.524v.9h-.946a10.01,10.01,0,0,1-1.074,4.443,6.565,6.565,0,0,0,2.149,1.843l-.473,1.041A7.166,7.166,0,0,1,1704.576,231.247Zm.773-5.2h-1.891a8,8,0,0,0,1.118,3.687A9.564,9.564,0,0,0,1705.349,226.047Z"/>
    <path id="Path_63738" data-name="Path 63738" d="M1700.193,243.544c-.316-.377-.53-.629-.645-.756v5.294h-.73V242.93a6.719,6.719,0,0,1-1.074,2.221l-.516-.9a12.917,12.917,0,0,0,1.547-3.829h-1.2v-.9h1.246v-2.269h.687c.229.032.244.126.043.284v1.985h.989v.9h-.989v1.325a3.841,3.841,0,0,1,1.118.945Zm3.953-2.5q0,1.133.086,2.127h1.16a2.194,2.194,0,0,0-.3-.709l.817-.237a3.48,3.48,0,0,1,.429.946h.9v.755h-2.965a6.423,6.423,0,0,0,.43,1.655,6.209,6.209,0,0,0,1.031-1.465l.73.425c.172.127.129.22-.129.284a7.588,7.588,0,0,1-1.074,1.465q.6.662.988.662.258,0,.387-.993l.731.472a2.025,2.025,0,0,1-.6,1.466q-.73.519-2.148-1.04a6.7,6.7,0,0,1-2.149,1.182l-.387-.9a5.962,5.962,0,0,0,2.02-1.04,6.367,6.367,0,0,1-.559-2.174h-1.589v.709a5.032,5.032,0,0,1,1.461.851l-.516.851q-.345-.33-.945-.8a3.814,3.814,0,0,1-1.375,2.552l-.688-.756a2.776,2.776,0,0,0,1.2-2.6v-.8h-.472v-.755h2.878q-.043-.474-.043-.8l-.6.236-.086-.473-1.762.284c-.057.22-.115.268-.172.141l-.257-.9h.429l.516-.993-.9-.709.343-.615.129.1.817-1.937.644.472c.114.126.086.189-.086.189l-.9,1.607.3.237.687-1.277.559.426c.114.126.086.188-.086.188l-1.332,2.269.9-.094-.258-.757.516-.236a5.207,5.207,0,0,1,.559,1.513v-4.68h.687q.344.048.043.284Zm2.363.755-1.761.378c-.058.221-.116.269-.172.142l-.258-.851.387-.047.515-.85-1.031-.852.344-.566.172.142.859-1.8.6.424c.114.127.085.19-.086.19l-.86,1.465.387.284.687-1.182.559.33c.114.127.086.19-.086.19l-1.375,2.174.945-.142-.257-.661.558-.143a5.58,5.58,0,0,1,.645,1.655l-.645.236Z"/>
    <path id="Path_63739" data-name="Path 63739" d="M1701.912,251.967v3.026h-3.352V262.6h-.859V251.967Zm-.86,1.23v-.662h-2.492v.662Zm0,.566h-2.492v.662h2.492Zm2.535,4.112,1.289-.046-.3-.615.6-.284a6.984,6.984,0,0,1,.731,1.56l-.6.284-.172-.378-2.578.188.129.285-.6.236-.3-.662-2.578.189c-.116.252-.215.252-.3,0l-.172-.757h.988l.387-.472-1.16-.9.386-.615.387.284.688-1.087.558.33q.3.142-.086.285l-.644.85.344.283.816-1.039.516.284c.257.158.243.253-.043.283l-1.289,1.512.988-.046-.258-.568.6-.236.386.85h.43l.473-.519-.989-.8.43-.567.172.141.687-1.039.559.33c.2.159.172.253-.086.285l-.644.8.343.284.946-1.229.558.378c.2.188.172.268-.086.236Zm-3.523,1.891h.988v-.9h.688c.228.031.243.126.043.283v1.276q0,1.371-1.8,2.032l-.344-.662q1.374-.518,1.418-1.275h-.988v.425h-.731V259.01h.688q.344.048.043.283Zm6.016,1.654v-6.427h-3.352v-3.026h4.211v9.879c0,.441-.187.661-.559.661h-.816l-.172-.9h.516C1706.022,261.61,1706.08,261.546,1706.08,261.42Zm-1.547-.9h-.946v1.654h-.73v-3.308h.687c.229.031.244.126.043.283v.614h.946v-.756h.687q.344.048.043.283v1.655h-.73Zm-.946-7.326h2.493v-.662h-2.493Zm0,1.228h2.493v-.662h-2.493Z"/>
    <path id="Path_63740" data-name="Path 63740" d="M1702.814,267.149a5.635,5.635,0,0,0,.73,1.087l1.247-1.418.73.614c.086.158.028.2-.172.142l-1.332,1.276.387.426,1.5-1.418.687.614q.171.237-.172.142l-1.5,1.135a5.8,5.8,0,0,0,2.321,1.323l-.344,1.087a7.733,7.733,0,0,1-2.793-1.938v.661h-3.48v-.566a8.643,8.643,0,0,1-2.793,1.984l-.473-.992a6.365,6.365,0,0,0,2.406-1.465,10.083,10.083,0,0,0-1.289-.945l.645-.9a12.6,12.6,0,0,1,1.375,1.134,8.482,8.482,0,0,0,1.2-1.607h-2.535v-.9h2.964l.172-.378.731.521q.258.189-.129.236Zm2.406,4.49v2.883h-.859l-.473,1.371h2.836v.9h-8.766v-.9h2.75l-.386-1.371h-.817v-2.883Zm-.859,2.127v-1.371h-4v1.371Zm-.473-3.781a10.3,10.3,0,0,1-1.461-2.032,6.219,6.219,0,0,1-1.5,2.032Zm-.472,4.537h-2.192l.344,1.371h1.461Z"/>
    <path id="Path_63741" data-name="Path 63741" d="M1697.486,282.8h4.683v.9h-4.683Zm.6,4.822h3.481v3.829h-.86v-.521h-1.761v.614h-.86Zm3.223-6.381v.9h-3.051v-.9Zm0,3.167v.9h-3.051v-.9Zm0,1.607v.9h-3.051v-.9Zm-2.363,2.363v1.8h1.761v-1.8Zm8.336.661-.172,1.041c-.115.692-.444,1.04-.988,1.04h-2.793c-.516,0-.774-.269-.774-.8v-5.2h3.18v-2.647h-3.4v-.9h4.254v5.152h-.859v-.709h-2.32v3.828c0,.253.1.378.3.378h2.106c.172,0,.271-.109.3-.331l.171-1.182Z"/>
    <path id="Path_63742" data-name="Path 63742" d="M1705.607,298.741a19.942,19.942,0,0,1-4.941,5.152,1.979,1.979,0,0,0,1.718.614h4.684l-.215,1.04h-4.512a3.031,3.031,0,0,1-2.836-1.843,8.076,8.076,0,0,1-.988,1.654l-.816-.709a8.207,8.207,0,0,0,1.675-2.93l.731.425-.258.662.258.378a16.868,16.868,0,0,0,4.254-4.49h-5.629v-.9h3.008v-2.22h.945c.286.063.3.188.043.378V297.8h2.234l.172-.236.817.9C1706.065,298.678,1705.951,298.773,1705.607,298.741Z"/>
    <path id="Path_63743" data-name="Path 63743" d="M1706.466,320.3h-.859v-.472h-6.574v.662h-.86v-7.469h3.524l.344-1.56h-4.383v-.9h9.324v.9h-3.953l-.473,1.56h3.91Zm-5.929-1.371v-5.01h-1.5v5.01Zm2.707-5.01H1701.4v1.229h1.848Zm0,3.073v-1.087H1701.4V317Zm0,1.937v-1.182H1701.4v1.182Zm2.363-5.01h-1.5v5.01h1.5Z"/>
    <path id="Path_63744" data-name="Path 63744" d="M1700.794,325.276l-.859.236v1.7h1.074v.9h-1.074v1.229a9.516,9.516,0,0,1,1.375,1.134l-.43.9-.945-.946v4.822h-.859v-4.775a6.121,6.121,0,0,1-1.246,2.127l-.6-.756a8.765,8.765,0,0,0,1.848-3.734h-1.5v-.9h1.5v-1.465q-.947.189-1.418.284l-.215-.852a11.965,11.965,0,0,0,3.18-.85l.472.85Q1701.18,325.324,1700.794,325.276Zm.043,9.17a6.549,6.549,0,0,0,2.192-1.087h-1.2v-4.207h4.64v4.207h-1.375a8.177,8.177,0,0,0,2.063.945l-.3.851a5.356,5.356,0,0,1-2.277-1.135l.429-.661h-1.89l.472.756q.129.283-.257.141a9.253,9.253,0,0,1-2.149,1.087Zm3.7-6.617h2.707v.755h-6.016v-.755h2.449v-.615h-1.8v-.567h1.8v-.567H1701.4v-.756h2.277v-.946h.817c.228.032.243.126.043.284v.662h2.406v.756h-2.406v.567h1.89v.567h-1.89Zm-1.977,2.5h3.18v-.614h-3.18Zm0,1.229h3.18V330.9h-3.18Zm0,1.23h3.18v-.663h-3.18Z"/>
    <path id="Path_63745" data-name="Path 63745" d="M1700.494,345.941a10.475,10.475,0,0,1-2.45,2.694l-.515-.945a11.774,11.774,0,0,0,3.953-5.625h-2.965v-.9h1.5a8.01,8.01,0,0,0-.688-1.417l.86-.426a7.236,7.236,0,0,1,.73,1.371l-.73.472h1.59a15.059,15.059,0,0,0,.644-2.126l.731.188q.342.048,0,.284-.216.9-.473,1.654h2.492l-.3,1.891h1.161l-.344,1.985h1.289l-.387,3.687q-.086.85-1.031.851h-1.16v-.9h.9c.315,0,.486-.125.516-.378l.258-2.363Zm-.989,3.12a11.5,11.5,0,0,0,.43-2.127l.816.142a14.9,14.9,0,0,1-.3,2.315Zm5.371-4.018.215-1.087h-3.523a5.885,5.885,0,0,1-.559,1.087Zm-3.437,3.97a11.679,11.679,0,0,0-.172-1.985l.774-.047a4.651,4.651,0,0,1,.3,1.937Zm.516-5.955h2.105l.172-.993h-1.891A8.314,8.314,0,0,1,1701.955,343.058Zm1.117,5.577a15.542,15.542,0,0,0-.258-1.654l.816-.189q.172.663.344,1.607Zm1.547-.472a14.266,14.266,0,0,0-.344-1.418l.73-.19a3.558,3.558,0,0,1,.43,1.324Z"/>
    <path id="Path_63746" data-name="Path 63746" d="M1702.728,362.729h4.254v.9H1697.7v-.9h4.168V359.8H1698.9v-.9h2.965v-2.317h-3.782v-.9h4.211a8.436,8.436,0,0,0-1.547-1.56l.731-.709a10.154,10.154,0,0,1,1.719,1.607l-.774.662h4.082v.9h-3.781V358.9h2.965v.9h-2.965Z"/>
    <path id="Path_63747" data-name="Path 63747" d="M1707.326,369.5a1.714,1.714,0,0,1-.473,1.181,1.369,1.369,0,0,1-2.148,0,1.712,1.712,0,0,1,0-2.363,1.368,1.368,0,0,1,2.148,0A1.714,1.714,0,0,1,1707.326,369.5Zm-.43,0a1.234,1.234,0,0,0-.344-.851.979.979,0,0,0-1.547,0,1.226,1.226,0,0,0,0,1.7.98.98,0,0,0,1.547,0A1.232,1.232,0,0,0,1706.9,369.5Z"/>
    <path id="Path_63748" data-name="Path 63748" d="M1683.944,116.14l.693-.629.7.569a.228.228,0,0,1,.088.194.231.231,0,0,1-.253.241h-9.582l-.088-.375Zm-.77-8.555.693-.641.7.581a.246.246,0,0,1,.077.182c0,.072,0,.242-.242.242h-8.086l-.077-.364Zm-.693,4.164.7-.642.693.581a.238.238,0,0,1-.165.423h-6.7l-.088-.362Z"/>
    <path id="Path_63749" data-name="Path 63749" d="M1679.159,125.178a5.906,5.906,0,0,1,2.056,1.041,1.309,1.309,0,0,1,.529.932c0,.254-.044.545-.341.545-.132,0-.4-.291-.792-.884a5.266,5.266,0,0,0-1.529-1.452Z"/>
    <path id="Path_63750" data-name="Path 63750" d="M1675.546,141.006a12.05,12.05,0,0,0,3.137-4.631l.945.708c.143.159.072.253-.214.284a13.552,13.552,0,0,1-3.137,4.443Zm1.5,4.727-.343-1.134,1.375-.1a50.392,50.392,0,0,0,1.589-4.821l1.032.378c.228.1.185.189-.129.284q-.774,2.08-1.59,4.112l3.652-.284a18.128,18.128,0,0,0-1.246-1.937l.86-.426a16.353,16.353,0,0,1,2.191,3.545l-.945.567a6.824,6.824,0,0,0-.43-.945l-5.758.661C1677.222,145.954,1677.136,145.985,1677.05,145.733Zm5.071-9.358a6.677,6.677,0,0,0,3.265,4.4l-.73.993a7.706,7.706,0,0,1-3.438-5.057Z"/>
    <path id="Path_63751" data-name="Path 63751" d="M1685.085,156.14v.9h-9.324v-.9h2.707v-2.552h-1.89v-.9h1.89v-2.315l.817.093c.228.032.243.127.043.284v1.938h2.148v-2.315l.816.093c.229.032.244.127.043.284v1.938h2.149v.9h-2.149v2.552Zm-6.23,1.277.773.756c.115.158.014.221-.3.189a10.238,10.238,0,0,1-2.75,2.411l-.559-.945A8.391,8.391,0,0,0,1678.855,157.417Zm.473-1.277h2.148v-2.552h-2.148Zm2.062,1.844.645-.709a8.219,8.219,0,0,0,2.922,2.363l-.6.945A8.178,8.178,0,0,1,1681.39,157.984Z"/>
    <path id="Path_63752" data-name="Path 63752" d="M1685.214,174.112v1.039h-9.539v-1.039h4.3v-2.033h-3.265V171.04h7.39v1.039h-3.265v2.033Zm-.644-5.294q-.3,1.229-1.117,1.228h-1.633c-.545,0-.817-.3-.817-.9v-2.316h-1.375v.567q0,2.127-2.836,3.214l-.429-.9q2.4-.8,2.406-2.315v-.567h-1.977v1.607h-.988v-2.506h4.125v-1.323h.946c.228.032.243.127.042.284v1.039h4.125v2.222h-.988v-1.323h-2.191v1.985q0,.332.387.331h.945q.429,0,.558-.709Z"/>
    <path id="Path_63753" data-name="Path 63753" d="M1679.8,183.337h-3.05v6.57h-.86V179.556h3.91Zm-.859-2.268v-.757h-2.191v.757Zm0,.756h-2.191v.756h2.191Zm3.48,2.316v4.632h-.859V188.4h-2.277v.756h-.86v-5.01Zm-.859.756h-2.277v1.04h2.277Zm0,1.8h-2.277v.945h2.277Zm2.449,2.08v-5.436h-3.094v-3.781h3.954V189.1c0,.5-.23.756-.688.756h-.859l-.086-.9h.6C1683.954,188.961,1684.011,188.9,1684.011,188.773Zm0-7.7v-.757h-2.234v.757Zm0,.756h-2.234v.756h2.234Z"/>
    <path id="Path_63754" data-name="Path 63754" d="M1677.351,197.492l.559.141a7.632,7.632,0,0,0,.816-1.418h-2.793v-.9h3.137a11.67,11.67,0,0,0,.515-1.7l.946.378q.171.189-.129.236a5.421,5.421,0,0,1-.387,1.087H1685v.9h-5.329a13.78,13.78,0,0,1-1.461,2.647v5.577h-.859V199.76a8,8,0,0,1-1.59,1.277l-.429-1.088a6.289,6.289,0,0,0,2.019-1.607Zm4.9-.331V199h2.191v.9h-2.191v3.119h2.835v.9H1678.6v-.9h2.793V199.9h-2.363V199h2.363v-2.127h.817C1682.435,196.909,1682.45,197,1682.25,197.161Z"/>
    <path id="Path_63755" data-name="Path 63755" d="M1675.976,209.116H1685v1.04h-3.739a5.553,5.553,0,0,1-.386.992V218.8h-.989v-6.05a9.716,9.716,0,0,1-3.695,3.12l-.6-1.087a9.006,9.006,0,0,0,4.6-4.632h-4.211Zm8.465,6.617a13.268,13.268,0,0,0-3.008-2.788l.6-.852a11.743,11.743,0,0,1,3.179,2.742Z"/>
    <path id="Path_63756" data-name="Path 63756" d="M1676.277,226.284v-3.215h4.512v3.215h-1.8v.756h2.535v.755h-5.973v-.755h2.579v-.756h-1.848Zm-.688,6.144a4.75,4.75,0,0,0,1.332-1.56l.774.567q.129.143-.258.284a5.035,5.035,0,0,1-1.246,1.418Zm.645-1.8v-2.268h4.6v2.268h-1.805v2.175q0,.756-.688.756h-.816l-.129-.9h.6c.114,0,.171-.064.171-.19v-1.844h-1.933Zm.859-.756h2.879v-.755h-2.879Zm.043-6.239v.757h2.793v-.757Zm0,1.323v.757h2.793v-.757Zm2.793,5.957a4.553,4.553,0,0,1,1.031.9l-.515.8a3.682,3.682,0,0,0-.988-1.04Zm1.031,1.654a9.864,9.864,0,0,0,3.868-3.214l.73.8c.028.158-.058.206-.258.142a10.639,10.639,0,0,1-3.781,3.166Zm.172-7.279a8.145,8.145,0,0,0,2.879-2.316l.731.8c.056.158-.043.206-.3.142a9.909,9.909,0,0,1-2.75,2.221Zm4.039,1.559q.043.237-.257.143a9.583,9.583,0,0,1-3.051,2.457l-.559-.851a9.558,9.558,0,0,0,3.18-2.505Z"/>
    <path id="Path_63757" data-name="Path 63757" d="M1676.921,238.77l.215.189.989-1.086.429.377c.2.19.172.269-.086.237l-1.633,1.607,1.118-.236.172-.615.687.189q.3.142,0,.236a3.81,3.81,0,0,1-2.836,2.836l-.387-.662a4.008,4.008,0,0,0,2.149-1.323l-1.848.473q-.129.426-.258.048l-.129-.852h.473l.688-.661a6.081,6.081,0,0,0-1.032-.8l.43-.567.344.236q.429-.613.9-1.37l.516.425c.2.158.172.236-.086.236A12.342,12.342,0,0,1,1676.921,238.77Zm1.375,5.1-.472-.851h-1.2v-.566h3.351v-.8h.817c.228.031.243.126.043.283v.521h3.394v.566h-1.2l-.6.851h2.922v.567h-9.84v-.567Zm-.859,1.087h5.973v3.12h-.86v-.332H1678.3v.473h-.859Zm.859,1.087h4.254v-.519H1678.3Zm4.254.568H1678.3v.567h4.254Zm-3.652-4.822q-.129.426-.258,0l-.172-.662.559-.093V237.3h2.664V240h-.731a5.562,5.562,0,0,1,1.118,1.417l-.559.425a5.068,5.068,0,0,0-.387-.661Zm2.664,2.08.43-.851h-3.223l.344.851Zm-.473-6h-1.461v.472h1.461Zm0,1.04h-1.461v.519h1.461Zm-.3,1.795-.387-.52.3-.188h-1.075v.945Zm2.234-2.835v4.017h-.731V237.3h1.934l.129-.141.6.331q.257.189-.129.236l-.731,1.512q1.374.851.86,2.08c-.116.283-.416.426-.9.426h-.387l-.171-.757h.515q.387,0,.3-.568-.044-.282-.9-1.087l.558-1.464Z"/>
    <path id="Path_63758" data-name="Path 63758" d="M1678.125,258.869h5.242v3.638h-.86v-.283h-3.953v.283h-.859v-3.4a12.3,12.3,0,0,1-1.719.614l-.344-.993a15.653,15.653,0,0,0,4.3-1.7,9.269,9.269,0,0,1-1.2-1.276,8.245,8.245,0,0,1-2.062,1.8l-.473-.8a7.222,7.222,0,0,0,2.75-2.931l.816.283c.115.127.072.205-.129.237l-.214.331h2.878l.172-.19.731.615-.215.189a10.625,10.625,0,0,1-1.719,1.749,15.512,15.512,0,0,0,4.168,1.228l-.3.994a12.855,12.855,0,0,1-4.511-1.7A9.686,9.686,0,0,1,1678.125,258.869Zm2.792-6.76v.709h4.04v2.363h-.86v-1.606h-7.347v1.606h-.86v-2.363h4.039v-1.087h.946Q1681.3,251.826,1680.917,252.109Zm1.59,9.217v-1.56h-3.953v1.56Zm-.816-5.909h-2.363a5.291,5.291,0,0,0,1.2,1.135A7.586,7.586,0,0,0,1681.691,255.417Z"/>
    <path id="Path_63759" data-name="Path 63759" d="M1676.363,267.2h8.207v9.028h-8.207Zm.859.9v7.232h6.488v-7.232Z"/>
    <path id="Path_63760" data-name="Path 63760" d="M1676.921,283.938h-1.246v-.9h1.289v-2.269h.688c.228.032.243.127.043.284v1.985h1.117v.9h-1.117v1.182a4.939,4.939,0,0,1,1.289.992l-.387.9a5.381,5.381,0,0,0-.9-.945v5.577h-.731v-5.1a7.219,7.219,0,0,1-1.074,2.268l-.515-.756A9.923,9.923,0,0,0,1676.921,283.938Zm6.532-1.371v.709h1.418V285.5h-1.676l-.559.756h2.492v.756h-2.492v.615h1.934v.756h-1.934v.661h1.934v.757h-1.934v.661h2.793v.757H1680.4v.378h-.731v-4.017a3.605,3.605,0,0,1-.988,1.04l-.473-.616a7.085,7.085,0,0,0,1.977-2.5h-1.074v-2.222h1.289v-.709h-1.676v-.756h1.676v-1.04h.687c.229.032.244.127.043.284v.756h1.59v-1.135h.688c.228.032.243.127.043.284v.851h1.89v.756Zm-2.536,1.466h-1.074v.709h1.074Zm.989,2.977h-1.5v.615h1.5Zm0,1.371h-1.5v.661h1.5Zm0,1.418h-1.5v.661h1.5Zm.816-7.232h-1.59v.709h.516V285.5H1681l-.429.756h1.461l.429-.756h-.214v-2.222h.472Zm1.418,1.466h-1.16v.709h1.16Z"/>
    <path id="Path_63761" data-name="Path 63761" d="M1684.914,302.333a3.854,3.854,0,0,1-1.418-1.04v3.5h1.632v.9h-9.281v-.9h1.633v-3.4a6.383,6.383,0,0,1-1.461,1.04l-.43-.9a5.025,5.025,0,0,0,2.879-3.309h-2.535v-.9h2.793a4.81,4.81,0,0,0-.73-1.465l.773-.473a5.7,5.7,0,0,1,.945,1.938h1.375a12.864,12.864,0,0,0,.86-2.127l.988.379c.114.157.057.252-.172.283a7.326,7.326,0,0,1-.773,1.465H1685v.9h-2.622a5.446,5.446,0,0,0,3.051,3.119Zm-1.8-1.371a7.972,7.972,0,0,1-1.59-2.741h-2.148a5.123,5.123,0,0,1-1.461,2.741Zm-3.867.9h-1.032v2.931h1.032Zm1.718,0h-.988v2.931h.988Zm1.805,0h-1.074v2.931h1.074Z"/>
    <path id="Path_63762" data-name="Path 63762" d="M1683.71,313.261a19.912,19.912,0,0,1-4.941,5.153,1.98,1.98,0,0,0,1.719.614h4.683l-.214,1.04h-4.512a3.029,3.029,0,0,1-2.836-1.844,8.022,8.022,0,0,1-.988,1.654l-.817-.709a8.2,8.2,0,0,0,1.676-2.929l.73.425-.257.662.257.378a16.857,16.857,0,0,0,4.254-4.491h-5.629v-.9h3.008V310.1h.946c.286.064.3.189.043.378v1.843h2.234l.172-.236.816.9C1684.168,313.2,1684.054,313.293,1683.71,313.261Z"/>
    <path id="Path_63763" data-name="Path 63763" d="M1677.609,327.829V335.2h-.859v-6.05a6.258,6.258,0,0,1-.86,1.418l-.558-.992a9.915,9.915,0,0,0,2.019-5.153l.945.283c.258.1.229.207-.086.332a20.676,20.676,0,0,1-.644,2.5C1677.852,327.577,1677.867,327.671,1677.609,327.829Zm4.383-3.5c.228.032.243.127.043.284V325.8h3.05v.9h-3.05v1.04h2.449v3.592h-.859v-.378h-1.59a5.144,5.144,0,0,1-.344,1.844,9.032,9.032,0,0,0,3.609,1.276l-.3,1.039a7.553,7.553,0,0,1-3.739-1.512,5.437,5.437,0,0,1-3.051,1.655l-.3-.9a4.681,4.681,0,0,0,2.707-1.323,5.163,5.163,0,0,1-1.2-1.7l.515-.378h-1.2v-3.214h2.449v-1.04h-2.922v-.9h2.922v-1.465Zm-.817,5.861v-1.7h-1.59v1.7Zm0,.756H1680.1a6,6,0,0,0,.9,1.276A4.382,4.382,0,0,0,1681.175,330.948Zm2.45-.756v-1.7h-1.59v1.7Z"/>
    <path id="Path_63764" data-name="Path 63764" d="M1683.839,345.7h-2.793V349.3h-.859V345.7h-2.578a6.208,6.208,0,0,1-1.332,3.922l-.688-.755a5.067,5.067,0,0,0,1.161-3.309v-6.05h7.949v9.028c0,.5-.23.756-.688.756h-1.2l-.215-1.04h1.074c.115,0,.172-.062.172-.189Zm-6.23-5.294v1.749h2.578v-1.749Zm0,2.647v1.749h2.578v-1.749Zm3.437-2.647v1.749h2.793v-1.749Zm0,2.647v1.749h2.793v-1.749Z"/>
    <path id="Path_63765" data-name="Path 63765" d="M1679.027,363.3h-2.063v.851h-.859v-5.01h3.781v4.868h-.859Zm-2.063-3.26V362.4h2.063v-2.363Zm5.286-2.08h-3.782v.331h-.859v-4.4h5.5v4.3h-.859Zm-3.782-.9h3.782v-2.268h-3.782Zm5.457,6.239h-2.062v.851H1681v-5.01h3.782v4.868h-.86Zm-2.062-3.26V362.4h2.062v-2.363Z"/>
    <path id="Path_63766" data-name="Path 63766" d="M1680.058,368.884c.028.189-.086.221-.344.094q-1.289.143-2.449.284v.473h3.008v.756h-1.031v1.087h-.86v-1.087h-1.16a3.049,3.049,0,0,1-.945,1.985l-.559-.662a2.92,2.92,0,0,0,.817-2.315v-1.135l.687.236a11.147,11.147,0,0,0,2.32-.519Zm4.3-.142q.258.332-.215.142a23.5,23.5,0,0,1-2.664.33v.521h3.738v.756h-1.5v1.087h-.859v-1.087h-1.461a3.457,3.457,0,0,1-.9,1.512h3.137v4.916h-1.59a7.6,7.6,0,0,0,2.879.9l-.344.993a8.828,8.828,0,0,1-3.18-1.135l.516-.756h-2.879l.43.709q.127.33-.3.142a16.526,16.526,0,0,1-3.008.992l-.3-.945a9,9,0,0,0,2.922-.9h-1.633V372h3.223l-.473-.614a2.629,2.629,0,0,0,.86-2.08v-.992l.816.236a17.5,17.5,0,0,0,2.32-.472Zm-1.59,4.774v-.757H1678v.757Zm0,1.323v-.756H1678v.756Zm0,1.324v-.756H1678v.756Z"/>
    <path id="Path_63767" data-name="Path 63767" d="M1679.628,392.9v-8.319h-3.867v-1.04H1685v1.04h-4.383V392.9Zm1.547-6.854a14.434,14.434,0,0,1,3.18,2.553l-.688.851a17.851,17.851,0,0,0-3.007-2.6Z"/>
    <path id="Path_63768" data-name="Path 63768" d="M1684.957,397.688v1.039l-.516,1.276h-.473l.43-1.276h-.43v-1.039Z"/>
    <path id="Path_63769" data-name="Path 63769" d="M1684.914,420.431a12.5,12.5,0,0,1-4.082-4.585v2.979h1.761v.9h-1.761v2.553h-.86v-2.553H1678.3v-.9h1.676v-2.979a10.261,10.261,0,0,1-4.039,4.821l-.473-.992a9.671,9.671,0,0,0,4.168-5.1h-3.738v-.9h4.082v-2.127h.817c.228.033.243.126.043.284v1.843h4.125v.9h-3.825a12.555,12.555,0,0,0,4.254,4.773Z"/>
    <path id="Path_63770" data-name="Path 63770" d="M1685.214,435.472v1.039h-9.539v-1.039h4.3v-2.033h-3.265V432.4h7.39v1.039h-3.265v2.033Zm-.644-5.294q-.3,1.23-1.117,1.229h-1.633q-.817,0-.817-.9v-2.316h-1.375v.567q0,2.127-2.836,3.214l-.429-.9q2.4-.8,2.406-2.316v-.567h-1.977V429.8h-.988v-2.506h4.125v-1.323h.946c.228.032.243.127.042.284v1.039h4.125v2.222h-.988v-1.323h-2.191v1.985q0,.331.387.331h.945q.429,0,.558-.709Z"/>
    <path id="Path_63771" data-name="Path 63771" d="M1683.667,451.22h-1.289l-.128-.9h1.074c.114,0,.172-.063.172-.189V442.1h-7.262v-.9h8.121v9.264C1684.355,450.967,1684.125,451.22,1683.667,451.22Zm-.988-6.948h-6.445v-.9h6.445Zm-1.031,1.087v4.017h-.859v-.33h-2.879v.851h-.86v-4.538Zm-.859.9h-2.879v1.891h2.879Z"/>
    <path id="Path_63772" data-name="Path 63772" d="M1675.5,460.825a9.26,9.26,0,0,0,2.75-3.356l.645.568q.171.141-.129.236c-.373.661-.644,1.119-.816,1.37v6.239h-.86v-5.246a13.939,13.939,0,0,1-1.117,1.087Zm.258-3.309a7.09,7.09,0,0,0,2.149-2.457l.687.566c.114.127.071.207-.129.237a7.7,7.7,0,0,1-2.234,2.553Zm2.75,4.869v-.9h4.383v-.8h-4.34v-.9h6.789v.9h-1.59v.8h1.547v.9h-1.547v2.694q0,.708-.6.709h-.988l-.172-.9h.73c.114,0,.172-.063.172-.189v-2.316Zm5.672-7.09v3.875h-4.555V455.3Zm-3.867,7.327a7.245,7.245,0,0,1,1.332,1.511l-.731.662a8.913,8.913,0,0,0-1.289-1.607Zm3.137-6.571h-3.094v.756h3.094Zm0,1.513h-3.094v.851h3.094Z"/>
    <path id="Path_63773" data-name="Path 63773" d="M1681.519,475.817a42.788,42.788,0,0,1-4.812,3.451c-.058.251-.159.267-.3.047l-.43-.992a9.4,9.4,0,0,0,1.074-.568l-.258-7.043.9.1c.228.032.243.126.043.283l.215,6.193a27.046,27.046,0,0,0,3.136-2.269Zm1.5-5.388.816.1c.229.031.244.126.043.283v3.4a6.407,6.407,0,0,1-.515,2.742l2.062,1.843-.644.946-1.805-1.986a6.556,6.556,0,0,1-4.039,2.458l-.344-1.04a5.584,5.584,0,0,0,3.309-1.559,5.409,5.409,0,0,0,1.117-3.735Zm-3.309.52a7.342,7.342,0,0,1,1.59,1.749l-.859.709a6.827,6.827,0,0,0-1.461-1.7Z"/>
    <path id="Path_63774" data-name="Path 63774" d="M1677.738,487.029l.129.1q.171.189-.129.236v7.515h-.86v-6a6.137,6.137,0,0,1-.816,1.134l-.559-.945a9.616,9.616,0,0,0,2.106-5.105l.945.378c.114.126.071.206-.129.237A10.417,10.417,0,0,1,1677.738,487.029Zm.773,7.232-.472-1.135a7.929,7.929,0,0,0,3.136-2.835h-3.093v-.9h3.136v-1.418h-1.289v.426h-.859v-3.923h5.07v3.876h-.859v-.379h-1.2v1.418h3.136v.9h-3.05a7.535,7.535,0,0,0,3.308,2.789l-.3,1.087a7.153,7.153,0,0,1-3.093-2.6v3.308h-.86v-3.261A10.284,10.284,0,0,1,1678.511,494.261Zm1.418-8.886v1.7h3.352v-1.7Z"/>
    <path id="Path_63775" data-name="Path 63775" d="M1679.671,502.447l-3.265,1.607c-.03.221-.1.268-.215.142l-.387-1.04.6-.19v-3.733l.859.283a12.813,12.813,0,0,0,2.707-.756l.387.992q.129.379-.344.095-1.461.332-2.75.52v2.316q1.032-.425,1.934-.9a7.9,7.9,0,0,0-.774-.946l.688-.566a7.841,7.841,0,0,1,1.5,1.984l-.731.568Zm4.383,1.89v4.869h-.859v-.425h-5.414v.661h-.86v-5.1Zm-4,.756h-2.277v1.088h2.277Zm0,1.844h-2.277v1.087h2.277Zm2.535-6.759q.086,3.4-2.836,3.97l-.3-.992q2.275-.33,2.234-2.978h-.945v-.9h4.168l-.129,2.884q-.087,1.559-.9,1.559h-1.031l-.129-.9h.731q.342,0,.386-.425l.172-2.222Zm.6,6v-1.088h-2.278v1.088Zm0,.756h-2.278v1.087h2.278Z"/>
    <path id="Path_63776" data-name="Path 63776" d="M1679.457,515.077v.9h-3.911v-.9Zm-1.29,8.649V523.4h-1.5v.521h-.731V520.04h2.965v3.686Zm-2.1-10.3h2.836v.9h-2.836Zm0,4.207v-.9h2.836v.9Zm0,.756h2.836v.9h-2.836Zm.6,4.254h1.5v-1.844h-1.5Zm3.351-9.17h4.942v9.738c0,.44-.172.661-.516.661h-1.031l-.172-.9h.816c.114,0,.172-.063.172-.189v-8.413h-3.48v5.388a7.181,7.181,0,0,1-1.118,4.112l-.644-.756a6.706,6.706,0,0,0,1.031-3.781Zm2.879,4.066h.9v.756h-2.578v-.756h.946V516.4h-.946v-.756h.946V514.7h.687c.229.031.243.126.043.283v.662h.945v.756h-.945Zm-.859,5.2h-.731v-3.593h2.278v2.931h-1.547Zm0-2.836v1.418h.816V519.9Z"/>
    <path id="Path_63777" data-name="Path 63777" d="M1679.972,533.248a9.869,9.869,0,0,0-1.2-.8v1.465h-.73v-1.465a6.494,6.494,0,0,1-2.063,1.513l-.387-.9a8.114,8.114,0,0,0,2.278-1.37h-1.5v-2.033h1.676v-.567H1675.8v-.756h2.235v-.756h.687c.229.031.243.126.043.283v.473h2.148v.756h-2.148v.567h1.59v2.033h-1.59a6.381,6.381,0,0,1,1.633.8Zm.988,2.551h2.707v.757h-2.707v.9h4.082v.756h-9.281v-.756h1.934v-1.891h.687q.344.048.043.284v1.607h1.8v-2.411h-3.867v-.755h8.121v.755h-3.524Zm-2.921-4.678v-.9h-1.075v.9Zm1.718,0v-.9h-.988v.9Zm2.493-2.08h2.835v.756h-.73a5.352,5.352,0,0,1-.816,2.316,3.969,3.969,0,0,0,1.89.85l-.258.946a5.605,5.605,0,0,1-2.191-1.182,6.379,6.379,0,0,1-2.449,1.23l-.344-.851a5.994,5.994,0,0,0,2.148-.993,7.7,7.7,0,0,1-.859-1.749,3.846,3.846,0,0,1-.644,1.088l-.43-.662a6.957,6.957,0,0,0,1.375-3.214l.859.283c.114.127.072.205-.129.236Zm-.258.756a5.183,5.183,0,0,0,.9,1.748,4.555,4.555,0,0,0,.688-1.748Z"/>
    <path id="Path_63778" data-name="Path 63778" d="M1683.71,545.582a19.924,19.924,0,0,1-4.941,5.152,1.98,1.98,0,0,0,1.719.614h4.683l-.214,1.04h-4.512a3.029,3.029,0,0,1-2.836-1.844,8.057,8.057,0,0,1-.988,1.655l-.817-.709a8.217,8.217,0,0,0,1.676-2.93l.73.425-.257.662.257.378a16.869,16.869,0,0,0,4.254-4.49h-5.629v-.9h3.008v-2.22h.946c.286.063.3.188.043.377v1.843h2.234l.172-.236.816.9C1684.168,545.519,1684.054,545.614,1683.71,545.582Z"/>
    <path id="Path_63779" data-name="Path 63779" d="M1676.921,559.818h-1.246v-.9h1.289v-2.268h.688c.228.032.243.127.043.284v1.984h1.117v.9h-1.117V561a4.939,4.939,0,0,1,1.289.992l-.387.9a5.383,5.383,0,0,0-.9-.945v5.577h-.731v-5.1a7.214,7.214,0,0,1-1.074,2.269l-.515-.756A9.923,9.923,0,0,0,1676.921,559.818Zm6.532-1.371v.709h1.418v2.221h-1.676l-.559.757h2.492v.756h-2.492v.614h1.934v.757h-1.934v.661h1.934v.757h-1.934v.661h2.793v.757H1680.4v.378h-.731v-4.017a3.606,3.606,0,0,1-.988,1.04l-.473-.616a7.08,7.08,0,0,0,1.977-2.505h-1.074v-2.221h1.289v-.709h-1.676v-.756h1.676v-1.04h.687c.229.032.244.127.043.284v.756h1.59v-1.135h.688c.228.032.243.127.043.284v.851h1.89v.756Zm-2.536,1.466h-1.074v.709h1.074Zm.989,2.977h-1.5v.614h1.5Zm0,1.371h-1.5v.661h1.5Zm0,1.418h-1.5v.661h1.5Zm.816-7.232h-1.59v.709h.516v2.221H1681l-.429.757h1.461l.429-.757h-.214v-2.221h.472Zm1.418,1.466h-1.16v.709h1.16Z"/>
    <path id="Path_63780" data-name="Path 63780" d="M1676.1,580.625q3.395-1.277,3.609-5.719h-3.093v-1.04h3.136v-2.41h.946c.286.063.3.188.043.377v2.033h3.781q-.087,3.781-.172,5.672t-1.289,1.89h-1.719l-.172-1.04h1.461q.687,0,.731-.756.084-1.371.172-4.726H1680.7q0,5.1-4.125,6.853Z"/>
    <path id="Path_63781" data-name="Path 63781" d="M1685.429,587.3a1.713,1.713,0,0,1-.472,1.182,1.37,1.37,0,0,1-2.149,0,1.712,1.712,0,0,1,0-2.363,1.369,1.369,0,0,1,2.149,0A1.711,1.711,0,0,1,1685.429,587.3Zm-.429,0a1.238,1.238,0,0,0-.344-.85.979.979,0,0,0-1.547,0,1.223,1.223,0,0,0,0,1.7.98.98,0,0,0,1.547,0A1.237,1.237,0,0,0,1685,587.3Z"/>
  </g>
</svg>
