<?xml version="1.0" encoding="utf-8"?>
<!-- Generator: Adobe Illustrator 25.4.1, SVG Export Plug-In . SVG Version: 6.00 Build 0)  -->
<svg version="1.1" id="圖層_1" xmlns="http://www.w3.org/2000/svg" xmlns:xlink="http://www.w3.org/1999/xlink" x="0px" y="0px"
	 viewBox="0 0 10.1 235.2" style="enable-background:new 0 0 10.1 235.2;" xml:space="preserve">
<g id="Group_1428" transform="translate(-1675.332 -106.944)">
	<path id="Path_63731" d="M1677.2,116.4c2-0.5,3-1.6,2.8-3.4h-2.5c0.1,1.5-0.4,3-1.4,4.2l-0.6-0.8c0.9-1.1,1.3-2.4,1.2-3.8v-3.9h7.6
		v2.7h-0.9v-0.2h-2.2v1h4v0.9h-4.4l0,0.8h3.5l-0.3,2.6c-0.1,0.5-0.3,0.8-0.8,0.8h-1.5l0-0.9h1c0.2,0,0.4-0.1,0.5-0.4c0,0,0,0,0-0.1
		l0.2-1.2h-2.7c-0.2,1.2-1.3,2.1-3.1,2.7L1677.2,116.4z M1684.9,107.8h-9v-0.9h9V107.8z M1683.5,110.3v-1h-5.9v1H1683.5z
		 M1677.6,111.1v1h2.8v-1H1677.6z"/>
	<path id="Path_63732" d="M1677.8,126.8h1.5l0.5-1.2h-2.4v1.1c0.1,1.7-0.3,3.4-1.2,4.9l-0.8-0.6c0.8-1.3,1.2-2.9,1.1-4.4v-5h7.9v2.4
		h-7v0.8h7.6v0.9h-2.2c0.7,0.5,1.4,1.2,2,1.8l-0.7,0.6l-0.6-0.7l-1.9,0.1v1.1h2.7v0.9h-2.7v1.1h3.7v0.9h-8.2v-0.9h3.6v-1.1h-2.7
		v-0.9h2.7v-1l-2.3,0.1c-0.1,0.3-0.2,0.3-0.3,0L1677.8,126.8z M1683.5,123.2v-0.9h-6.1v0.9H1683.5z M1680.8,125.6l-0.7,1.2l2.7-0.1
		l-0.7-0.6l0.5-0.5H1680.8z"/>
	<path id="Path_63733" d="M1684.6,146h-0.9v-0.5h-6.6v0.7h-0.9v-7.5h3.5l0.3-1.6h-4.4v-0.9h9.3v0.9h-4l-0.5,1.6h3.9V146z
		 M1678.6,144.7v-5h-1.5v5H1678.6z M1681.3,139.7h-1.8v1.2h1.8L1681.3,139.7z M1681.3,142.7v-1.1h-1.8v1.1H1681.3z M1681.3,144.7
		v-1.2h-1.8v1.2H1681.3z M1683.7,139.7h-1.5v5h1.5V139.7z"/>
	<path id="Path_63734" d="M1678.9,151l-0.9,0.2v1.7h1.1v0.9h-1.1v1.2c0.5,0.3,1,0.7,1.4,1.1l-0.4,0.9c-0.3-0.3-0.6-0.6-0.9-0.9v4.8
		h-0.9v-4.8c-0.3,0.8-0.7,1.5-1.2,2.1l-0.6-0.8c0.9-1.1,1.5-2.4,1.8-3.7h-1.5V153h1.5v-1.5l-1.4,0.3l-0.2-0.9
		c1.1-0.1,2.2-0.4,3.2-0.9l0.5,0.9C1679.3,151,1679.2,151.1,1678.9,151z M1678.9,160.2c0.8-0.2,1.5-0.6,2.2-1.1h-1.2v-4.2h4.6v4.2
		h-1.4c0.6,0.4,1.3,0.7,2.1,0.9l-0.3,0.9c-0.8-0.2-1.6-0.6-2.3-1.1l0.4-0.7h-1.9l0.5,0.8c0.1,0.2,0,0.2-0.3,0.1
		c-0.7,0.5-1.4,0.8-2.1,1.1L1678.9,160.2z M1682.6,153.6h2.7v0.8h-6v-0.8h2.4V153h-1.8v-0.6h1.8v-0.6h-2.3v-0.8h2.3v-0.9h0.8
		c0.2,0,0.2,0.1,0,0.3v0.7h2.4v0.8h-2.4v0.6h1.9v0.6h-1.9L1682.6,153.6z M1680.7,156.1h3.2v-0.6h-3.2V156.1z M1680.7,157.3h3.2v-0.7
		h-3.2V157.3z M1680.7,158.5h3.2v-0.7h-3.2V158.5z"/>
	<path id="Path_63735" d="M1681.5,170.9c-1.5,1.3-3.1,2.4-4.8,3.5c-0.1,0.3-0.2,0.3-0.3,0l-0.4-1c0.4-0.2,0.7-0.4,1.1-0.6l-0.3-7
		l0.9,0.1c0.2,0,0.2,0.1,0,0.3l0.2,6.2c1.1-0.7,2.1-1.4,3.1-2.3L1681.5,170.9z M1683,165.5l0.8,0.1c0.2,0,0.2,0.1,0,0.3v3.4
		c0,0.9-0.1,1.9-0.5,2.7l2.1,1.8l-0.6,0.9l-1.8-2c-1,1.3-2.4,2.2-4,2.5l-0.3-1c1.2-0.1,2.4-0.7,3.3-1.6c0.8-1.1,1.2-2.4,1.1-3.7
		L1683,165.5z M1679.7,166c0.6,0.5,1.2,1.1,1.6,1.7l-0.9,0.7c-0.4-0.6-0.9-1.2-1.5-1.7L1679.7,166z"/>
	<path id="Path_63736" d="M1679,187.3l-2.9,1.1c0,0.2-0.1,0.3-0.2,0.1l-0.3-1.1l1.3-0.4v-3.8h-1.2v-0.9h1.2v-2.6h0.8
		c0.2,0,0.2,0.1,0,0.3v2.4h1.1v0.9h-1.1v3.6l1.2-0.5L1679,187.3z M1684.3,188.2l0.3-1l0.9,0.3l-0.2,0.9c-0.2,0.8-0.6,1.1-1.2,1.1
		h-3.6c-0.5,0-0.8-0.3-0.8-0.8v-4.5l-1.1,0.5l-0.3-0.9l1.4-0.5v-2.7h0.8c0.2,0,0.2,0.1,0,0.3v2.1l1-0.4v-3.2h0.8
		c0.2,0,0.2,0.1,0,0.3v2.6l1.5-0.6l0.1-0.2l0.9,0.7l-0.2,0.1v3.6c0,0.5-0.2,0.8-0.7,0.8h-0.9l-0.2-0.9h0.7c0.1,0,0.2-0.1,0.2-0.2
		v-2.8l-1.4,0.6v4.1h-0.9v-3.7l-1,0.4v4.3c0,0.3,0.1,0.4,0.3,0.4h2.9C1684,188.7,1684.2,188.5,1684.3,188.2L1684.3,188.2z"/>
	<path id="Path_63737" d="M1682.7,202.2c-0.9,1-2,1.8-3.2,2.2l-0.4-1c1.2-0.3,2.3-1,3.1-1.9c-0.6-1-0.9-2-1.1-3.1
		c-0.2,0.7-0.5,1.3-0.9,1.8l-0.6-0.8l0.4-0.6h-1.2v3.1l1.5-0.4l0.1,0.9l-4.4,1.3c0,0.2-0.1,0.3-0.2,0.1l-0.3-1.2l0.6-0.1v-5.2h0.8
		c0.2,0,0.2,0.1,0,0.3v4.8l0.9-0.2v-6.6h-2.1v-0.9h4.7v0.9h-1.7v2.4h1.2v0.8c0.7-1.6,1.2-3.3,1.2-5l1,0.3c0.1,0.1,0.1,0.2-0.1,0.2
		c-0.1,0.6-0.2,1.3-0.4,1.9h3.5v0.9h-0.9c0,1.5-0.4,3.1-1.1,4.4c0.6,0.8,1.3,1.4,2.1,1.8l-0.5,1
		C1684,203.8,1683.3,203.1,1682.7,202.2z M1683.5,197h-1.9c0.1,1.3,0.5,2.6,1.1,3.7C1683.2,199.5,1683.4,198.3,1683.5,197z"/>
	<path id="Path_63738" d="M1678.3,214.5c-0.3-0.4-0.5-0.6-0.6-0.8v5.3h-0.7v-5.2c-0.2,0.8-0.6,1.6-1.1,2.2l-0.5-0.9
		c0.7-1.2,1.2-2.5,1.5-3.8h-1.2v-0.9h1.2v-2.3h0.7c0.2,0,0.2,0.1,0,0.3v2h1v0.9h-1v1.3c0.4,0.2,0.8,0.6,1.1,0.9L1678.3,214.5z
		 M1682.2,212c0,0.8,0,1.5,0.1,2.1h1.2c-0.1-0.3-0.2-0.5-0.3-0.7l0.8-0.2c0.2,0.3,0.3,0.6,0.4,0.9h0.9v0.8h-3
		c0.1,0.6,0.2,1.1,0.4,1.7c0.4-0.4,0.8-0.9,1-1.5l0.7,0.4c0.2,0.1,0.1,0.2-0.1,0.3c-0.3,0.5-0.7,1-1.1,1.5c0.4,0.4,0.7,0.7,1,0.7
		c0.2,0,0.3-0.3,0.4-1l0.7,0.5c0,0.5-0.2,1.1-0.6,1.5c-0.5,0.3-1.2,0-2.1-1c-0.6,0.5-1.4,0.9-2.1,1.2l-0.4-0.9c0.7-0.2,1.4-0.6,2-1
		c-0.3-0.7-0.5-1.4-0.6-2.2h-1.6v0.7c0.5,0.2,1,0.5,1.5,0.9l-0.5,0.9c-0.2-0.2-0.5-0.5-0.9-0.8c-0.1,1-0.6,1.9-1.4,2.6l-0.7-0.8
		c0.9-0.6,1.3-1.6,1.2-2.6v-0.8h-0.5v-0.8h2.9c0-0.3,0-0.6,0-0.8l-0.6,0.2l-0.1-0.5l-1.8,0.3c-0.1,0.2-0.1,0.3-0.2,0.1l-0.3-0.9h0.4
		l0.5-1l-0.9-0.7l0.3-0.6l0.1,0.1l0.8-1.9l0.6,0.5c0.1,0.1,0.1,0.2-0.1,0.2l-0.9,1.6l0.3,0.2l0.7-1.3l0.6,0.4
		c0.1,0.1,0.1,0.2-0.1,0.2l-1.3,2.3l0.9-0.1l-0.3-0.8l0.5-0.2c0.3,0.5,0.5,1,0.6,1.5v-4.7h0.7c0.2,0,0.2,0.1,0,0.3L1682.2,212z
		 M1684.6,212.7l-1.8,0.4c-0.1,0.2-0.1,0.3-0.2,0.1l-0.3-0.9l0.4,0l0.5-0.9l-1-0.9l0.3-0.6l0.2,0.1l0.9-1.8l0.6,0.4
		c0.1,0.1,0.1,0.2-0.1,0.2l-0.9,1.5l0.4,0.3l0.7-1.2l0.6,0.3c0.1,0.1,0.1,0.2-0.1,0.2l-1.4,2.2l0.9-0.1l-0.3-0.7l0.6-0.1
		c0.3,0.5,0.5,1.1,0.6,1.7l-0.6,0.2L1684.6,212.7z"/>
	<path id="Path_63739" d="M1680,222.9v3h-3.4v7.6h-0.9v-10.6H1680z M1679.2,224.1v-0.7h-2.5v0.7H1679.2z M1679.2,224.7h-2.5v0.7h2.5
		V224.7z M1681.7,228.8l1.3,0l-0.3-0.6l0.6-0.3c0.3,0.5,0.6,1,0.7,1.6l-0.6,0.3l-0.2-0.4l-2.6,0.2l0.1,0.3l-0.6,0.2l-0.3-0.7
		l-2.6,0.2c-0.1,0.3-0.2,0.3-0.3,0l-0.2-0.8h1l0.4-0.5l-1.2-0.9l0.4-0.6l0.4,0.3l0.7-1.1l0.6,0.3c0.2,0.1,0.2,0.2-0.1,0.3l-0.6,0.8
		l0.3,0.3l0.8-1l0.5,0.3c0.3,0.2,0.2,0.3,0,0.3l-1.3,1.5l1,0l-0.3-0.6l0.6-0.2l0.4,0.9h0.4l0.5-0.5l-1-0.8l0.4-0.6l0.2,0.1l0.7-1
		l0.6,0.3c0.2,0.2,0.2,0.3-0.1,0.3l-0.6,0.8l0.3,0.3l0.9-1.2l0.6,0.4c0.2,0.2,0.2,0.3-0.1,0.2L1681.7,228.8z M1678.2,230.7h1v-0.9
		h0.7c0.2,0,0.2,0.1,0,0.3v1.3c0,0.9-0.6,1.6-1.8,2l-0.3-0.7c0.9-0.3,1.4-0.8,1.4-1.3h-1v0.4h-0.7V230h0.7c0.2,0,0.2,0.1,0,0.3
		L1678.2,230.7z M1684.2,232.4v-6.4h-3.4v-3h4.2v9.9c0,0.4-0.2,0.7-0.6,0.7h-0.8l-0.2-0.9h0.5
		C1684.1,232.6,1684.2,232.5,1684.2,232.4L1684.2,232.4z M1682.6,231.5h-0.9v1.7h-0.7v-3.3h0.7c0.2,0,0.2,0.1,0,0.3v0.6h0.9V230h0.7
		c0.2,0,0.2,0.1,0,0.3v1.7h-0.7V231.5z M1681.7,224.1h2.5v-0.7h-2.5V224.1z M1681.7,225.4h2.5v-0.7h-2.5V225.4z"/>
	<path id="Path_63740" d="M1680.9,238.1c0.2,0.4,0.4,0.8,0.7,1.1l1.2-1.4l0.7,0.6c0.1,0.2,0,0.2-0.2,0.1l-1.3,1.3l0.4,0.4l1.5-1.4
		l0.7,0.6c0.1,0.2,0.1,0.2-0.2,0.1l-1.5,1.1c0.7,0.6,1.5,1.1,2.3,1.3l-0.3,1.1c-1.1-0.4-2-1.1-2.8-1.9v0.7h-3.5v-0.6
		c-0.8,0.8-1.7,1.5-2.8,2l-0.5-1c0.9-0.3,1.7-0.8,2.4-1.5c-0.4-0.3-0.8-0.7-1.3-0.9l0.6-0.9c0.5,0.3,0.9,0.7,1.4,1.1
		c0.5-0.5,0.9-1,1.2-1.6h-2.5v-0.9h3l0.2-0.4l0.7,0.5c0.2,0.1,0.1,0.2-0.1,0.2L1680.9,238.1z M1683.3,242.6v2.9h-0.9l-0.5,1.4h2.8
		v0.9h-8.8v-0.9h2.8l-0.4-1.4h-0.8v-2.9H1683.3z M1682.5,244.7v-1.4h-4v1.4H1682.5z M1682,240.9c-0.6-0.6-1.1-1.3-1.5-2
		c-0.4,0.8-0.9,1.5-1.5,2H1682z M1681.5,245.5h-2.2l0.3,1.4h1.5L1681.5,245.5z"/>
	<path id="Path_63741" d="M1675.6,253.7h4.7v0.9h-4.7V253.7z M1676.2,258.6h3.5v3.8h-0.9v-0.5h-1.8v0.6h-0.9V258.6z M1679.4,252.2
		v0.9h-3.1v-0.9H1679.4z M1679.4,255.4v0.9h-3.1v-0.9H1679.4z M1679.4,257v0.9h-3.1V257H1679.4z M1677,259.3v1.8h1.8v-1.8H1677z
		 M1685.4,260l-0.2,1c-0.1,0.7-0.4,1-1,1h-2.8c-0.5,0-0.8-0.3-0.8-0.8v-5.2h3.2v-2.6h-3.4v-0.9h4.3v5.2h-0.9V257h-2.3v3.8
		c0,0.3,0.1,0.4,0.3,0.4h2.1c0.2,0,0.3-0.1,0.3-0.3l0.2-1.2L1685.4,260z"/>
	<path id="Path_63742" d="M1683.7,269.7c-1.3,2-3,3.7-4.9,5.2c0.4,0.5,1.1,0.7,1.7,0.6h4.7l-0.2,1h-4.5c-1.2,0-2.4-0.7-2.8-1.8
		c-0.3,0.6-0.6,1.1-1,1.7l-0.8-0.7c0.8-0.9,1.3-1.8,1.7-2.9l0.7,0.4l-0.3,0.7l0.3,0.4c1.7-1.2,3.1-2.7,4.3-4.5h-5.6v-0.9h3v-2.2h0.9
		c0.3,0.1,0.3,0.2,0,0.4v1.8h2.2l0.2-0.2l0.8,0.9C1684.2,269.6,1684.1,269.7,1683.7,269.7z"/>
	<path id="Path_63743" d="M1684.6,291.2h-0.9v-0.5h-6.6v0.7h-0.9V284h3.5l0.3-1.6h-4.4v-0.9h9.3v0.9h-4l-0.5,1.6h3.9V291.2z
		 M1678.6,289.9v-5h-1.5v5H1678.6z M1681.3,284.9h-1.8v1.2h1.8L1681.3,284.9z M1681.3,287.9v-1.1h-1.8v1.1L1681.3,287.9z
		 M1681.3,289.9v-1.2h-1.8v1.2H1681.3z M1683.7,284.9h-1.5v5h1.5V284.9z"/>
	<path id="Path_63744" d="M1678.9,296.2l-0.9,0.2v1.7h1.1v0.9h-1.1v1.2c0.5,0.3,1,0.7,1.4,1.1l-0.4,0.9l-0.9-0.9v4.8h-0.9v-4.8
		c-0.3,0.8-0.7,1.5-1.2,2.1l-0.6-0.8c0.9-1.1,1.5-2.4,1.8-3.7h-1.5v-0.9h1.5v-1.5c-0.6,0.1-1.1,0.2-1.4,0.3l-0.2-0.9
		c1.1-0.1,2.2-0.4,3.2-0.9l0.5,0.9C1679.3,296.2,1679.2,296.3,1678.9,296.2z M1678.9,305.4c0.8-0.2,1.5-0.6,2.2-1.1h-1.2v-4.2h4.6
		v4.2h-1.4c0.6,0.4,1.3,0.7,2.1,0.9l-0.3,0.9c-0.8-0.2-1.6-0.6-2.3-1.1l0.4-0.7h-1.9l0.5,0.8c0.1,0.2,0,0.2-0.3,0.1
		c-0.7,0.5-1.4,0.8-2.1,1.1L1678.9,305.4z M1682.6,298.8h2.7v0.8h-6v-0.8h2.4v-0.6h-1.8v-0.6h1.8V297h-2.3v-0.8h2.3v-0.9h0.8
		c0.2,0,0.2,0.1,0,0.3v0.7h2.4v0.8h-2.4v0.6h1.9v0.6h-1.9L1682.6,298.8z M1680.7,301.3h3.2v-0.6h-3.2V301.3z M1680.7,302.5h3.2v-0.7
		h-3.2V302.5z M1680.7,303.7h3.2v-0.7h-3.2V303.7z"/>
	<path id="Path_63745" d="M1678.6,316.9c-0.7,1-1.5,1.9-2.4,2.7l-0.5-0.9c1.8-1.4,3.2-3.4,4-5.6h-3v-0.9h1.5c-0.2-0.5-0.4-1-0.7-1.4
		l0.9-0.4c0.3,0.4,0.5,0.9,0.7,1.4l-0.7,0.5h1.6c0.3-0.7,0.5-1.4,0.6-2.1l0.7,0.2c0.2,0,0.2,0.1,0,0.3c-0.1,0.6-0.3,1.2-0.5,1.7h2.5
		l-0.3,1.9h1.2l-0.3,2h1.3l-0.4,3.7c-0.1,0.6-0.4,0.9-1,0.9h-1.2v-0.9h0.9c0.3,0,0.5-0.1,0.5-0.4l0.3-2.4L1678.6,316.9z M1677.6,320
		c0.2-0.7,0.4-1.4,0.4-2.1l0.8,0.1c0,0.8-0.1,1.6-0.3,2.3L1677.6,320z M1683,316l0.2-1.1h-3.5c-0.1,0.4-0.3,0.7-0.6,1.1H1683z
		 M1679.5,320c0-0.7-0.1-1.3-0.2-2l0.8,0c0.2,0.6,0.3,1.3,0.3,1.9L1679.5,320z M1680.1,314h2.1l0.2-1h-1.9
		C1680.3,313.3,1680.2,313.7,1680.1,314z M1681.2,319.6c-0.1-0.6-0.1-1.1-0.3-1.7l0.8-0.2c0.1,0.4,0.2,1,0.3,1.6L1681.2,319.6z
		 M1682.7,319.1c-0.1-0.5-0.2-1-0.3-1.4l0.7-0.2c0.2,0.4,0.4,0.9,0.4,1.3L1682.7,319.1z"/>
	<path id="Path_63746" d="M1680.8,333.7h4.3v0.9h-9.3v-0.9h4.2v-2.9h-3v-0.9h3v-2.3h-3.8v-0.9h4.2c-0.4-0.6-1-1.1-1.5-1.6l0.7-0.7
		c0.6,0.5,1.2,1,1.7,1.6l-0.8,0.7h4.1v0.9h-3.8v2.3h3v0.9h-3L1680.8,333.7z"/>
	<path id="Path_63747" d="M1685.4,340.4c0,0.4-0.2,0.9-0.5,1.2c-0.5,0.6-1.3,0.7-1.9,0.2c-0.1-0.1-0.2-0.1-0.2-0.2
		c-0.6-0.7-0.6-1.7,0-2.4c0.5-0.6,1.3-0.7,1.9-0.2c0.1,0.1,0.2,0.1,0.2,0.2C1685.3,339.6,1685.4,340,1685.4,340.4z M1685,340.4
		c0-0.3-0.1-0.6-0.3-0.9c-0.3-0.4-0.9-0.5-1.4-0.2c-0.1,0.1-0.1,0.1-0.2,0.2c-0.5,0.5-0.5,1.2,0,1.7c0.3,0.4,0.9,0.5,1.4,0.2
		c0.1,0,0.1-0.1,0.2-0.2C1684.9,341.1,1685,340.8,1685,340.4L1685,340.4z"/>
</g>
</svg>
