<svg xmlns="http://www.w3.org/2000/svg" width="66.247" height="66.899" viewBox="0 0 66.247 66.899">
  <g id="Group_59" data-name="Group 59" transform="translate(-3940.147 -113.662)">
    <ellipse id="Ellipse_2" data-name="Ellipse 2" cx="33.123" cy="33.45" rx="33.123" ry="33.45" transform="translate(3940.147 113.662)" fill="#ec7900"/>
    <g id="Group_58" data-name="Group 58">
      <path id="Path_95" data-name="Path 95" d="M3988.728,164.952a2.188,2.188,0,0,1-1.561-.654L3956.8,133.636a2.243,2.243,0,0,1,0-3.153,2.193,2.193,0,0,1,3.123,0l30.363,30.662a2.245,2.245,0,0,1,0,3.153A2.192,2.192,0,0,1,3988.728,164.952Z" fill="#fff"/>
      <path id="Path_96" data-name="Path 96" d="M3958.365,164.952a2.188,2.188,0,0,1-1.561-.654,2.243,2.243,0,0,1,0-3.153l30.363-30.662a2.193,2.193,0,0,1,3.123,0,2.245,2.245,0,0,1,0,3.153L3959.927,164.3A2.192,2.192,0,0,1,3958.365,164.952Z" fill="#fff"/>
    </g>
  </g>
</svg>
