<svg xmlns="http://www.w3.org/2000/svg" width="27.447" height="27.45" viewBox="0 0 27.447 27.45">
  <path id="Path_128" data-name="Path 128" d="M1326.41,638.518a.749.749,0,0,0-.782.823V650.75h-5.636v-4.624a.8.8,0,0,0-.7-.824h-4.064a.882.882,0,0,0-.865.824v4.624h-5.552v-11a.792.792,0,0,0-.783-.824.75.75,0,0,0-.782.824v11.928a.808.808,0,0,0,.782.824h7.2a.8.8,0,0,0,.7-.824V646.95h2.505v4.728a.877.877,0,0,0,.859.824h7.117a.87.87,0,0,0,.782-.824V639.341a.794.794,0,0,0-.782-.823Zm-18.374-12.039h0a.863.863,0,0,1,.72.948v6.279l7.878-8.349a.764.764,0,0,1,.623-.3.612.612,0,0,1,.471.3c4.611,4.832,7.817,8.224,12.981,13.777h0a.824.824,0,0,1-.547,1.44.758.758,0,0,1-.547-.208l-12.358-13.257-12.433,13.049a.636.636,0,0,1-1.094,0,.589.589,0,0,1-.235-.512,1.015,1.015,0,0,1,.235-.616l3.58-3.794v-7.809a.862.862,0,0,1,.726-.948Z" transform="translate(-1303.495 -625.052)" fill="#fff" fill-rule="evenodd"/>
</svg>
